<svg width="54" height="54" viewBox="0 0 54 54" fill="none" xmlns="http://www.w3.org/2000/svg">
<path d="M27 54C41.9117 54 54 41.9117 54 27C54 12.0883 41.9117 0 27 0C12.0883 0 0 12.0883 0 27C0 41.9117 12.0883 54 27 54Z" fill="white"/>
<path d="M33.8276 14.1595C35.4828 15.6078 36.3103 17.6509 36.3103 20.3017C36.3103 22.9784 35.4569 25.0215 33.7629 26.444C32.069 27.8664 29.7802 28.6034 26.9224 28.6552V32.7026H21.5819V24.9569H23.8707C26.0431 24.9569 27.7241 24.6336 28.9267 23.9741C30.1293 23.3146 30.7371 22.1121 30.7371 20.3405C30.7371 19.1638 30.4009 18.2457 29.7285 17.5862C29.056 16.9267 28.1638 16.6034 27.0388 16.6034C25.8103 16.6034 24.8276 16.9526 24.1035 17.6638C23.3793 18.375 23.0172 19.2931 23.0172 20.4181H17.6767C17.625 18.8146 17.9741 17.3793 18.7241 16.0991C19.4741 14.8319 20.5733 13.8233 22.0345 13.0862C23.4957 12.3491 25.2285 11.9871 27.2328 11.9871C29.9741 11.9871 32.1595 12.7112 33.8276 14.1595ZM27.3621 36.1034V42H21.2586V36.1034H27.3621Z" fill="#111820"/>
</svg>
