<svg width="97" height="43" viewBox="0 0 97 43" fill="none" xmlns="http://www.w3.org/2000/svg">
<path opacity="0.47" d="M46.5102 42.3728C68.3311 42.3728 86.0205 41.6178 86.0205 40.6864C86.0205 39.755 68.3311 39 46.5102 39C24.6893 39 7 39.755 7 40.6864C7 41.6178 24.6893 42.3728 46.5102 42.3728Z" fill="#B5B5B5"/>
<path d="M79.7426 17.4798H77.0003C76.8225 17.4798 76.6727 17.3311 76.6727 17.1547V8.57264C76.6727 8.39617 76.8225 8.24756 77.0003 8.24756H79.7426C79.9205 8.24756 80.0702 8.39617 80.0702 8.57264C80.5288 11.4333 80.5288 14.294 80.0702 17.1547C80.0702 17.3311 79.9205 17.4798 79.7426 17.4798Z" fill="#FCD21D"/>
<path d="M68.0901 2.00619H28.2281C28.2281 0.900929 29.136 0 30.2498 0H66.0591C67.1822 0 68.0901 0.900929 68.0901 2.00619Z" fill="#313233"/>
<path d="M47.5273 2.00619H7.67474C7.67474 0.900929 8.58261 0 9.69639 0H45.5057C46.6195 0 47.5273 0.900929 47.5273 2.00619Z" fill="#111820"/>
<path d="M63.4759 35.7493L5.30683 35.2199L4.6891 35.2292L1.76895 22.8577L67.8093 22.6255L63.4759 35.7493Z" fill="#36385C"/>
<path d="M84.3475 31.1423H14.3013V36.9844H84.3475V31.1423Z" fill="#111820"/>
<path d="M63.3636 42.0001C66.341 42.0001 68.7546 38.2867 68.7546 33.706C68.7546 29.1253 66.341 25.4119 63.3636 25.4119C60.3862 25.4119 57.9725 29.1253 57.9725 33.706C57.9725 38.2867 60.3862 42.0001 63.3636 42.0001Z" fill="#111820"/>
<path d="M63.3636 25.4119H58.4405V42.0001H63.3636V25.4119Z" fill="#111820"/>
<path d="M58.4405 42.0001C61.4179 42.0001 63.8315 38.2867 63.8315 33.706C63.8315 29.1253 61.4179 25.4119 58.4405 25.4119C55.4631 25.4119 53.0494 29.1253 53.0494 33.706C53.0494 38.2867 55.4631 42.0001 58.4405 42.0001Z" fill="#111820"/>
<path d="M58.4405 38.8051C60.2704 38.8051 61.7538 36.5221 61.7538 33.706C61.7538 30.8899 60.2704 28.6069 58.4405 28.6069C56.6107 28.6069 55.1273 30.8899 55.1273 33.706C55.1273 36.5221 56.6107 38.8051 58.4405 38.8051Z" fill="#E6E6E6"/>
<path d="M58.4405 35.7958C59.19 35.7958 59.7976 34.8601 59.7976 33.706C59.7976 32.5518 59.19 31.6162 58.4405 31.6162C57.691 31.6162 57.0834 32.5518 57.0834 33.706C57.0834 34.8601 57.691 35.7958 58.4405 35.7958Z" fill="#111820"/>
<path d="M87.2864 25.4119H82.3633C79.387 25.4119 76.9722 29.127 76.9722 33.706C76.9722 38.2849 79.387 42.0001 82.3633 42.0001H87.2864C90.2627 42.0001 92.6774 38.2849 92.6774 33.706C92.6774 29.1177 90.2627 25.4119 87.2864 25.4119Z" fill="#111820"/>
<path d="M79.8268 13.7368L69.7186 2.00611C69.2506 1.45812 68.558 1.14233 67.8374 1.14233H27.4794L22.6592 13.7275L22.678 32.8885L27.0956 35.7491H52.0667C51.9918 35.0897 51.945 34.4024 51.945 33.6965C51.945 28.616 54.0977 24.5015 56.7558 24.5015H61.1547C63.0828 24.5015 64.7394 26.6563 65.5069 29.777C65.5443 29.9349 65.5817 30.1021 65.6192 30.2693C65.8812 31.4303 66.1433 32.5634 66.3866 33.5943C66.6768 34.8482 67.8093 35.7491 69.1103 35.7491H88.9617C89.7853 35.7491 91.2922 35.7491 91.2922 35.7491H92.0784C94.2498 35.7491 96.0094 34.003 96.0094 31.8482V31.3467V19.4488C96.0094 18.6408 95.4665 17.9256 94.6709 17.7213L79.8268 13.7368Z" fill="#FCD21D"/>
<path d="M40.2176 25.4119H35.2852C32.3088 25.4119 29.8941 29.127 29.8941 33.706C29.8941 38.2849 32.3088 42.0001 35.2852 42.0001H40.2082C43.1845 42.0001 45.5993 38.2849 45.5993 33.706C45.5993 29.1177 43.1845 25.4119 40.2176 25.4119Z" fill="#111820"/>
<path d="M15.9111 42.0001C18.8885 42.0001 21.3021 38.2867 21.3021 33.706C21.3021 29.1253 18.8885 25.4119 15.9111 25.4119C12.9337 25.4119 10.52 29.1253 10.52 33.706C10.52 38.2867 12.9337 42.0001 15.9111 42.0001Z" fill="#111820"/>
<path d="M15.9111 25.4119H10.988V42.0001H15.9111V25.4119Z" fill="#111820"/>
<path d="M10.988 42.0001C13.9654 42.0001 16.3791 38.2867 16.3791 33.706C16.3791 29.1253 13.9654 25.4119 10.988 25.4119C8.01061 25.4119 5.59695 29.1253 5.59695 33.706C5.59695 38.2867 8.01061 42.0001 10.988 42.0001Z" fill="#111820"/>
<path d="M10.988 38.8051C12.8179 38.8051 14.3012 36.5221 14.3012 33.706C14.3012 30.8899 12.8179 28.6069 10.988 28.6069C9.15814 28.6069 7.67474 30.8899 7.67474 33.706C7.67474 36.5221 9.15814 38.8051 10.988 38.8051Z" fill="#E6E6E6"/>
<path d="M10.988 35.7958C11.7375 35.7958 12.3451 34.8601 12.3451 33.706C12.3451 32.5518 11.7375 31.6162 10.988 31.6162C10.2385 31.6162 9.63089 32.5518 9.63089 33.706C9.63089 34.8601 10.2385 35.7958 10.988 35.7958Z" fill="#111820"/>
<path d="M57.6449 13.7275L47.5367 2.00611C47.0687 1.45812 46.3761 1.14233 45.6554 1.14233H6.8324C5.90581 1.14233 5.08218 1.7089 4.74524 2.57267L1.52559 10.9875C0.851704 12.7337 0.496044 14.582 0.477325 16.4581C0.477325 16.5324 0.477325 16.5974 0.477325 16.6717L0.486685 31.7553C0.486685 32.4612 0.870423 33.1021 1.48815 33.4457L4.68908 35.229C4.68908 35.229 4.62357 34.3652 4.62357 33.7058C4.62357 28.6253 6.77624 24.5108 9.43433 24.5108H13.8333C16.4914 24.5108 18.644 28.6253 18.644 33.7058V35.7584H52.0667C52.0105 35.2755 51.9731 34.7739 51.9544 34.2631C51.945 34.0773 51.945 33.9008 51.945 33.7151C51.945 30.195 52.9839 27.13 54.5001 25.5882C55.174 24.9101 55.9415 24.52 56.7558 24.52H61.1547C63.0828 24.52 64.7394 26.6748 65.5069 29.7956C65.5443 29.9535 65.5817 30.1207 65.6192 30.2878C65.9 31.5231 66.1808 32.7213 66.4335 33.808C66.6955 34.9504 67.7251 35.7584 68.9044 35.7584H69.1009H69.8871C72.0585 35.7584 73.8181 34.0123 73.8181 31.8575V31.356V19.4488C73.8181 18.6408 73.2752 17.9256 72.4797 17.7213L57.6449 13.7275Z" fill="#F9BE00"/>
<path d="M53.8356 13.7276H4.33344C3.77187 13.7276 3.38813 13.1703 3.59404 12.6595L6.7201 4.56038C7.13192 3.48298 8.18018 2.7771 9.34075 2.7771H44.7195C45.2811 2.7771 45.8146 3.01859 46.1796 3.44583L54.2381 12.8917C54.5189 13.2167 54.2755 13.7276 53.8356 13.7276Z" fill="#111820"/>
<path d="M53.9011 13.2446C53.8824 13.2817 53.8544 13.2817 53.8356 13.2817H4.33344C4.22112 13.2817 4.10881 13.226 4.04329 13.1331C3.97778 13.0403 3.95906 12.9195 4.00585 12.8173L4.78269 10.8112L7.14127 4.70899C7.48757 3.80806 8.36736 3.20435 9.34075 3.20435H44.7195C45.1501 3.20435 45.5619 3.3901 45.8333 3.71518L49.1091 7.5511L53.8918 13.1517C53.8918 13.1796 53.9199 13.2074 53.9011 13.2446Z" fill="#F2F2F2"/>
<path d="M5.00731 13.1331C4.94179 13.0402 4.92307 12.9195 4.96987 12.8173L8.09593 4.71827C8.44223 3.81734 9.32202 3.21362 10.2954 3.21362H9.33138C8.35799 3.21362 7.4782 3.81734 7.1319 4.71827L4.00584 12.8173C3.96841 12.9288 3.97777 13.0402 4.04328 13.1331C4.1088 13.226 4.21175 13.2817 4.33343 13.2817H5.29745C5.17578 13.291 5.07282 13.2353 5.00731 13.1331Z" fill="white"/>
<path d="M77.9175 13.7276H59.0395C58.74 13.7276 58.4592 13.5975 58.2626 13.3746L49.7455 3.50157C49.4928 3.21364 49.6987 2.76782 50.0918 2.76782H69.0915C69.3349 2.76782 69.5689 2.86999 69.728 3.05575L78.2544 12.9845C78.5165 13.2818 78.3012 13.7276 77.9175 13.7276Z" fill="#FCD21D"/>
<path d="M77.9175 13.291H59.0395C58.871 13.291 58.7119 13.2167 58.609 13.096L56.2972 10.4025L50.8406 4.07741L50.0919 3.21363C50.0919 3.21363 50.0919 3.21363 50.0919 3.20435H51.2244H56.7184H69.1009C69.2132 3.20435 69.3162 3.25079 69.3911 3.33438L71.6748 5.99072L77.9175 13.291C77.9269 13.2817 77.9269 13.2817 77.9175 13.291Z" fill="#F2F2F2"/>
<path d="M77.9269 13.2817L69.3911 3.35293C69.3162 3.26934 69.2132 3.2229 69.1009 3.2229H50.1012H68.3334C68.4457 3.2229 68.5487 3.26934 68.6236 3.35293L77.15 13.2817V13.291L77.9269 13.2817C77.9269 13.291 77.9269 13.2817 77.9269 13.2817Z" fill="white"/>
<path d="M53.8918 13.1702C53.9012 13.1795 53.9199 13.2074 53.9012 13.2445C53.8825 13.2817 53.8544 13.2817 53.8357 13.2817H45.3934C46.8254 11.4241 48.0515 9.4829 49.0998 7.5603L53.8918 13.1702Z" fill="white"/>
<path d="M51.9544 34.2539C51.9731 34.7648 52.0105 35.2663 52.0667 35.7493H18.644V33.6966C18.644 28.6161 16.4914 24.5016 13.8333 24.5016H9.43433C6.77624 24.5016 4.62357 28.6161 4.62357 33.6966C4.62357 34.3561 4.68908 35.2199 4.68908 35.2199L1.48815 33.4366C0.870423 33.0929 0.486685 32.4428 0.486685 31.7462L0.477325 16.6719C0.477325 16.5976 0.477325 16.5326 0.477325 16.4583C4.19303 19.774 9.77127 22.2446 18.1293 21.8267C32.8049 21.0836 44.6166 20.7957 54.5095 25.579C52.9839 27.1208 51.945 30.1765 51.945 33.7059C51.945 33.8917 51.945 34.0682 51.9544 34.2539Z" fill="#F9BE00"/>
<path d="M50.644 8.6748L54.1632 12.8079L53.8356 13.7274H50.644V8.6748Z" fill="#111820"/>
<path d="M46.0579 1.81104H34.8078L20.4879 1.84819C19.9544 1.84819 19.5145 2.25686 19.4677 2.76769C19.4677 2.79556 19.4677 2.83271 19.4677 2.86986V32.164C19.4677 32.9627 20.1228 33.6129 20.9278 33.6129H51.0839V7.72744L46.0579 1.81104ZM34.8078 33.2878H20.9184C20.2913 33.2878 19.7765 32.777 19.7765 32.1547V2.86986C19.7765 2.83271 19.7765 2.80484 19.7859 2.76769C19.8327 2.42404 20.1322 2.16398 20.4879 2.16398L34.8078 2.12682V33.2878ZM50.7564 33.2878H35.1261V2.12682H45.9082L50.7564 7.8389V33.2878Z" fill="#111820"/>
<path d="M37.5408 33.4459H37.2226V26.7307C37.2226 25.4954 36.2118 24.4923 34.9669 24.4923V24.1765C36.3896 24.1765 37.5408 25.3189 37.5408 26.7307V33.4459Z" fill="#111820"/>
<path d="M33.4788 17.2197H29.4262C29.3138 17.2197 29.2202 17.1268 29.2202 17.0154V16.7925C29.2202 16.681 29.3138 16.5881 29.4262 16.5881H33.4788C33.5911 16.5881 33.6847 16.681 33.6847 16.7925V17.0154C33.6847 17.1361 33.5911 17.2197 33.4788 17.2197Z" fill="#111820"/>
<path d="M51.0746 9.18574V13.7275H50.7563V8.80493L51.0746 9.18574Z" fill="#111820"/>
<path d="M19.9637 3.21362C17.2121 7.52322 14.6195 10.8019 12.3545 13.291H4.33344C4.22112 13.291 4.10881 13.2353 4.04329 13.1424C3.97778 13.0495 3.95906 12.9288 4.00585 12.8266L4.78269 10.8204C9.20971 8.65635 13.019 5.91641 16.1451 3.22291H19.9637V3.21362Z" fill="white"/>
<path d="M34.5083 3.21362C34.031 7.08669 33.301 10.4675 32.5241 13.2817H25.5233C28.4715 9.83591 30.5025 6.36223 31.897 3.21362H34.5083Z" fill="white"/>
<path d="M56.2971 10.4025L50.8406 4.07741C50.9716 3.78949 51.1026 3.49227 51.2243 3.20435H56.7183C56.8306 5.87927 56.6434 8.28484 56.2971 10.4025Z" fill="white"/>
<path d="M77.9175 13.291H64.3557C71.1319 12.1393 71.4408 8.32197 71.6748 6.00928L77.9175 13.291C77.9269 13.2817 77.9269 13.2817 77.9175 13.291Z" fill="white"/>
<path d="M21.0682 3.21362H18.1199V13.291H21.0682V3.21362Z" fill="#4D4D66"/>
<path d="M19.7859 2.76782C19.7859 2.79569 19.7765 2.83284 19.7765 2.86999V13.7369H19.4583V2.86999C19.4583 2.83284 19.4583 2.80497 19.4583 2.76782H19.7859Z" fill="#111820"/>
<path d="M36.4457 3.21362H33.4975V13.291H36.4457V3.21362Z" fill="#4D4D66"/>
<path d="M35.1261 2.76782H34.8078V13.7276H35.1261V2.76782Z" fill="#111820"/>
<path d="M52.0667 35.7493H18.644V34.2539H51.9544C51.9637 34.7647 52.0105 35.2663 52.0667 35.7493Z" fill="#4D4D66"/>
<path d="M75.5121 28.4489C74.8008 28.1052 73.9023 28.3374 73.088 28.969C72.5171 29.4241 71.9836 30.0743 71.5999 30.873C71.1038 31.8947 70.9354 32.9443 71.0664 33.7987C71.1787 34.5511 71.5344 35.1455 72.1146 35.4241C73.3407 36.0093 75.091 34.9226 76.0269 32.9907C76.9722 31.0774 76.7382 29.034 75.5121 28.4489Z" fill="#F9BE00"/>
<path d="M75.4841 32.7398C74.7728 34.198 73.4531 35.0154 72.5265 34.5695C72.096 34.3652 71.8245 33.9101 71.7403 33.3435C71.6373 32.7027 71.7684 31.9039 72.1428 31.133C72.4329 30.5293 72.8354 30.037 73.2659 29.6934C73.8743 29.2104 74.5575 29.0432 75.091 29.294C76.0176 29.7491 76.1954 31.2909 75.4841 32.7398Z" fill="#111820"/>
<path d="M74.6042 31.319C74.5762 31.7277 74.4264 32.1642 74.1456 32.5543C73.8649 32.9444 73.4998 33.223 73.1255 33.3809C72.6575 33.5759 72.1614 33.5759 71.759 33.353C71.656 32.7122 71.7871 31.9134 72.1614 31.1425C72.4516 30.5388 72.854 30.0465 73.2846 29.7029C73.556 29.7122 73.8181 29.7865 74.0427 29.9444C74.4451 30.2416 74.6417 30.7617 74.6042 31.319Z" fill="white"/>
<path d="M95.1296 32.7957C94.4183 34.2539 93.0986 35.0713 92.172 34.6254C91.7415 34.4211 91.47 33.966 91.3858 33.3994C91.2829 32.7586 91.4139 31.9598 91.7883 31.1889C92.0784 30.5852 92.4809 30.0929 92.9114 29.7493C93.5198 29.2663 94.203 29.0991 94.7365 29.3499C95.6537 29.805 95.8315 31.3468 95.1296 32.7957Z" fill="#111820"/>
<path d="M94.2404 31.3654C94.2123 31.774 94.0626 32.2106 93.7818 32.6007C93.501 32.9908 93.136 33.2694 92.7616 33.4273C92.2936 33.6223 91.7976 33.6223 91.3951 33.3994C91.2922 32.7586 91.4232 31.9598 91.7976 31.1889C92.0877 30.5852 92.4902 30.0929 92.9207 29.7493C93.1922 29.7586 93.4542 29.8329 93.6789 29.9908C94.0813 30.2973 94.2779 30.8081 94.2404 31.3654Z" fill="white"/>
<path d="M48.6692 17.4798H45.9269C45.7491 17.4798 45.5993 17.3311 45.5993 17.1547V8.57264C45.5993 8.39617 45.7491 8.24756 45.9269 8.24756H48.6692C48.847 8.24756 48.9968 8.39617 48.9968 8.57264C49.5958 11.4333 49.5958 14.294 48.9968 17.1547C48.9968 17.3311 48.847 17.4798 48.6692 17.4798Z" fill="#FCD21D"/>
<path d="M46.1796 17.1547V8.57264C46.1796 8.39617 46.3293 8.24756 46.5072 8.24756H45.9269C45.7491 8.24756 45.5993 8.39617 45.5993 8.57264V17.1547C45.5993 17.3311 45.7491 17.4798 45.9269 17.4798H46.5072C46.32 17.4798 46.1796 17.3311 46.1796 17.1547Z" fill="#F9BE00"/>
<path d="M49.7736 16.2168H48.3416C48.0608 16.2168 47.8362 15.9938 47.8362 15.7152V14.8236C47.8362 14.5449 48.0608 14.322 48.3416 14.322H49.7736C50.0544 14.322 50.279 14.5449 50.279 14.8236V15.7152C50.2696 15.9938 50.045 16.2168 49.7736 16.2168Z" fill="#FCD21D"/>
<path d="M1.02954 27.0093H0.187189C0.0842352 27.0093 0 26.9257 0 26.8235V18.6316C0 18.5294 0.0842352 18.4458 0.187189 18.4458H1.02954C1.13249 18.4458 1.21673 18.5294 1.21673 18.6316V26.8235C1.21673 26.9257 1.13249 27.0093 1.02954 27.0093Z" fill="#FCD21D"/>
<path d="M1.02955 18.4458H0.580292C0.683246 18.4458 0.767481 18.5294 0.767481 18.6316V26.8235C0.767481 26.9257 0.683246 27.0093 0.580292 27.0093H1.02955C1.1325 27.0093 1.21674 26.9257 1.21674 26.8235V18.6316C1.21674 18.5294 1.1325 18.4458 1.02955 18.4458Z" fill="#F9BE00"/>
<path d="M76.0643 19.2353V22.5511C76.0643 22.644 75.9895 22.7276 75.8865 22.7276H70.6452C68.4832 22.7276 66.6862 21.1301 66.3867 19.0682H75.8959C75.9895 19.0589 76.0643 19.1332 76.0643 19.2353Z" fill="white"/>
<path d="M95.6818 19.1331V22.6533C95.6724 22.6718 95.6163 22.7276 95.504 22.7276H92.4715C92.2937 22.7276 92.172 22.6254 92.172 22.5511V19.2353C92.172 19.1703 92.2937 19.0588 92.4715 19.0588H95.5133C95.6163 19.0588 95.6818 19.1146 95.6818 19.1331Z" fill="white"/>
<path d="M90.7774 28.9412H77.7678C77.2998 28.9412 76.9161 28.5604 76.9161 28.096V25.6533C76.9161 25.1889 77.2998 24.8081 77.7678 24.8081H90.7774C91.2454 24.8081 91.6292 25.1889 91.6292 25.6533V28.096C91.6292 28.5604 91.2454 28.9412 90.7774 28.9412Z" fill="#4D4D66"/>
<path d="M90.7775 24.8081H89.9164C90.3844 24.8081 90.7681 25.1889 90.7681 25.6533V28.096C90.7681 28.5604 90.3844 28.9412 89.9164 28.9412H90.7775C91.2454 28.9412 91.6292 28.5604 91.6292 28.096V25.6533C91.6292 25.1889 91.2454 24.8081 90.7775 24.8081Z" fill="#111820"/>
<path d="M90.8242 19.8203H77.6742C77.5619 19.8203 77.4683 19.7275 77.4683 19.616V19.1423C77.4683 19.0309 77.5619 18.938 77.6742 18.938H90.8242C90.9365 18.938 91.0301 19.0309 91.0301 19.1423V19.616C91.0301 19.7275 90.9365 19.8203 90.8242 19.8203Z" fill="#111820"/>
<path d="M90.8242 18.938H89.9631C90.0754 18.938 90.169 19.0309 90.169 19.1423V19.616C90.169 19.7275 90.0754 19.8203 89.9631 19.8203H90.8242C90.9365 19.8203 91.0301 19.7275 91.0301 19.616V19.1423C91.0301 19.0309 90.9365 18.938 90.8242 18.938Z" fill="#111820"/>
<path d="M90.8242 21.3714H77.6742C77.5619 21.3714 77.4683 21.2785 77.4683 21.167V20.6933C77.4683 20.5819 77.5619 20.489 77.6742 20.489H90.8242C90.9365 20.489 91.0301 20.5819 91.0301 20.6933V21.167C91.0301 21.2878 90.9365 21.3714 90.8242 21.3714Z" fill="#111820"/>
<path d="M90.8242 20.489H89.9631C90.0754 20.489 90.169 20.5819 90.169 20.6933V21.167C90.169 21.2785 90.0754 21.3714 89.9631 21.3714H90.8242C90.9365 21.3714 91.0301 21.2785 91.0301 21.167V20.6933C91.0301 20.5819 90.9365 20.489 90.8242 20.489Z" fill="#111820"/>
<path d="M90.8242 22.9319H77.6742C77.5619 22.9319 77.4683 22.839 77.4683 22.7276V22.2539C77.4683 22.1424 77.5619 22.0496 77.6742 22.0496H90.8242C90.9365 22.0496 91.0301 22.1424 91.0301 22.2539V22.7276C91.0301 22.839 90.9365 22.9319 90.8242 22.9319Z" fill="#111820"/>
<path d="M90.8242 22.04H89.9631C90.0754 22.04 90.169 22.1329 90.169 22.2444V22.7181C90.169 22.8295 90.0754 22.9224 89.9631 22.9224H90.8242C90.9365 22.9224 91.0301 22.8295 91.0301 22.7181V22.2444C91.0301 22.1329 90.9365 22.04 90.8242 22.04Z" fill="#111820"/>
<path d="M90.3282 34.7461H77.1781C77.0658 34.7461 76.9722 34.6532 76.9722 34.5418V34.0681C76.9722 33.9566 77.0658 33.8638 77.1781 33.8638H90.3282C90.4405 33.8638 90.5341 33.9566 90.5341 34.0681V34.5418C90.5341 34.6625 90.4405 34.7461 90.3282 34.7461Z" fill="#111820"/>
<path d="M71.7122 19.0588V22.7183H70.6452C68.4832 22.7183 66.6862 21.1208 66.3867 19.0588H71.7122Z" fill="#F4DD7A"/>
<path d="M95.6818 19.1332V22.6533C95.6724 22.6719 95.6163 22.7276 95.504 22.7276H95.0173V19.0682H95.504C95.6163 19.0589 95.6818 19.1146 95.6818 19.1332Z" fill="#F4DD7A"/>
</svg>
