<svg width="97" height="45" viewBox="0 0 97 45" fill="none" xmlns="http://www.w3.org/2000/svg">
<path opacity="0.47" d="M47.5102 44.3728C69.3311 44.3728 87.0205 43.6178 87.0205 42.6864C87.0205 41.755 69.3311 41 47.5102 41C25.6893 41 8 41.755 8 42.6864C8 43.6178 25.6893 44.3728 47.5102 44.3728Z" fill="#B5B5B5"/>
<path d="M80.2769 17.7249H77.5162C77.3372 17.7249 77.1865 17.5742 77.1865 17.3952V8.69291C77.1865 8.51397 77.3372 8.36328 77.5162 8.36328H80.2769C80.456 8.36328 80.6067 8.51397 80.6067 8.69291C81.0684 11.5937 81.0684 14.4945 80.6067 17.3952C80.6067 17.5742 80.456 17.7249 80.2769 17.7249Z" fill="#F2F2F2"/>
<path d="M68.5464 2.03431H28.4173C28.4173 0.913554 29.3312 0 30.4525 0H66.5018C67.6324 0 68.5464 0.913554 68.5464 2.03431Z" fill="#313233"/>
<path d="M47.8458 2.03431H7.72617C7.72617 0.913554 8.64012 0 9.76136 0H45.8106C46.9319 0 47.8458 0.913554 47.8458 2.03431Z" fill="#111820"/>
<path d="M63.9012 36.2501L5.34238 35.7133L4.72051 35.7227L1.78079 23.1778L68.2637 22.9424L63.9012 36.2501Z" fill="#36385C"/>
<path d="M84.9127 31.5789H14.3971V37.5028H84.9127V31.5789Z" fill="#111820"/>
<path d="M63.7881 42.5885C66.7855 42.5885 69.2153 38.8231 69.2153 34.1782C69.2153 29.5333 66.7855 25.7678 63.7881 25.7678C60.7908 25.7678 58.361 29.5333 58.361 34.1782C58.361 38.8231 60.7908 42.5885 63.7881 42.5885Z" fill="#111820"/>
<path d="M63.7882 25.7678H58.8321V42.5885H63.7882V25.7678Z" fill="#111820"/>
<path d="M58.8321 42.5885C61.8294 42.5885 64.2593 38.8231 64.2593 34.1782C64.2593 29.5333 61.8294 25.7678 58.8321 25.7678C55.8347 25.7678 53.4049 29.5333 53.4049 34.1782C53.4049 38.8231 55.8347 42.5885 58.8321 42.5885Z" fill="#111820"/>
<path d="M58.8321 39.3489C60.6742 39.3489 62.1675 37.0339 62.1675 34.1783C62.1675 31.3227 60.6742 29.0078 58.8321 29.0078C56.99 29.0078 55.4966 31.3227 55.4966 34.1783C55.4966 37.0339 56.99 39.3489 58.8321 39.3489Z" fill="#E6E6E6"/>
<path d="M58.8321 36.2972C59.5866 36.2972 60.1983 35.3485 60.1983 34.1782C60.1983 33.0078 59.5866 32.0591 58.8321 32.0591C58.0776 32.0591 57.4659 33.0078 57.4659 34.1782C57.4659 35.3485 58.0776 36.2972 58.8321 36.2972Z" fill="#111820"/>
<path d="M87.8713 25.7678H82.9152C79.919 25.7678 77.488 29.5351 77.488 34.1782C77.488 38.8213 79.919 42.5885 82.9152 42.5885H87.8713C90.8675 42.5885 93.2985 38.8213 93.2985 34.1782C93.2985 29.5256 90.8675 25.7678 87.8713 25.7678Z" fill="#111820"/>
<path d="M80.3617 13.9294L70.1858 2.03433C69.7147 1.47866 69.0174 1.15845 68.2919 1.15845H27.6635L22.8111 13.9199L22.8299 33.3495L27.2772 36.2502H52.4156C52.3402 35.5815 52.2931 34.8846 52.2931 34.1688C52.2931 29.0171 54.4602 24.8449 57.1361 24.8449H61.5645C63.5055 24.8449 65.1732 27.0299 65.9458 30.1944C65.9835 30.3545 66.0212 30.524 66.0589 30.6936C66.3227 31.8708 66.5865 33.0198 66.8315 34.0652C67.1236 35.3367 68.2637 36.2502 69.5733 36.2502H89.5578C90.3869 36.2502 91.9039 36.2502 91.9039 36.2502H92.6954C94.8813 36.2502 96.6527 34.4796 96.6527 32.2946V31.7861V19.7215C96.6527 18.9021 96.1062 18.1769 95.3053 17.9697L80.3617 13.9294Z" fill="#F2F2F2"/>
<path d="M40.4871 25.7678H35.5216C32.5254 25.7678 30.0945 29.5351 30.0945 34.1782C30.0945 38.8213 32.5254 42.5885 35.5216 42.5885H40.4777C43.4739 42.5885 45.9049 38.8213 45.9049 34.1782C45.9049 29.5256 43.474 25.7678 40.4871 25.7678Z" fill="#111820"/>
<path d="M16.0177 42.5885C19.015 42.5885 21.4449 38.8231 21.4449 34.1782C21.4449 29.5333 19.015 25.7678 16.0177 25.7678C13.0203 25.7678 10.5905 29.5333 10.5905 34.1782C10.5905 38.8231 13.0203 42.5885 16.0177 42.5885Z" fill="#111820"/>
<path d="M16.0177 25.7678H11.0616V42.5885H16.0177V25.7678Z" fill="#111820"/>
<path d="M11.0616 42.5885C14.059 42.5885 16.4888 38.8231 16.4888 34.1782C16.4888 29.5333 14.059 25.7678 11.0616 25.7678C8.06429 25.7678 5.63446 29.5333 5.63446 34.1782C5.63446 38.8231 8.06429 42.5885 11.0616 42.5885Z" fill="#111820"/>
<path d="M11.0616 39.3489C12.9037 39.3489 14.3971 37.0339 14.3971 34.1783C14.3971 31.3227 12.9037 29.0078 11.0616 29.0078C9.2195 29.0078 7.72617 31.3227 7.72617 34.1783C7.72617 37.0339 9.2195 39.3489 11.0616 39.3489Z" fill="#E6E6E6"/>
<path d="M11.0616 36.2972C11.8162 36.2972 12.4278 35.3485 12.4278 34.1782C12.4278 33.0078 11.8162 32.0591 11.0616 32.0591C10.3071 32.0591 9.6954 33.0078 9.6954 34.1782C9.6954 35.3485 10.3071 36.2972 11.0616 36.2972Z" fill="#111820"/>
<path d="M58.0312 13.9199L47.8552 2.03433C47.3841 1.47866 46.6869 1.15845 45.9614 1.15845H6.87816C5.94536 1.15845 5.11621 1.73295 4.77701 2.60883L1.53578 11.1416C0.857386 12.9122 0.499344 14.7864 0.480499 16.6889C0.480499 16.7642 0.480499 16.8301 0.480499 16.9055L0.489921 32.2004C0.489921 32.9162 0.876231 33.5661 1.49809 33.9145L4.72048 35.7228C4.72048 35.7228 4.65453 34.8469 4.65453 34.1782C4.65453 29.0266 6.82163 24.8543 9.49753 24.8543H13.926C16.6018 24.8543 18.7689 29.0266 18.7689 34.1782V36.2596H52.4156C52.359 35.7699 52.3213 35.2613 52.3025 34.7433C52.2931 34.555 52.2931 34.376 52.2931 34.1877C52.2931 30.6182 53.3389 27.5102 54.8653 25.9468C55.5437 25.2593 56.3163 24.8638 57.1361 24.8638H61.5645C63.5055 24.8638 65.1732 27.0488 65.9458 30.2132C65.9835 30.3733 66.0212 30.5429 66.0589 30.7124C66.3415 31.965 66.6242 33.1799 66.8786 34.2818C67.1424 35.4403 68.1789 36.2596 69.3661 36.2596H69.5639H70.3554C72.5413 36.2596 74.3127 34.489 74.3127 32.304V31.7955V19.7215C74.3127 18.9021 73.7662 18.1769 72.9653 17.9697L58.0312 13.9199Z" fill="#B3B3B3"/>
<path d="M54.1964 13.9198H4.36245C3.79712 13.9198 3.41081 13.3548 3.6181 12.8368L6.76511 4.62419C7.17968 3.53169 8.23497 2.81592 9.40332 2.81592H45.0192C45.5845 2.81592 46.1216 3.06079 46.489 3.49402L54.6015 13.0722C54.8842 13.4018 54.6392 13.9198 54.1964 13.9198Z" fill="#111820"/>
<path d="M54.2624 13.4302C54.2435 13.4679 54.2153 13.4679 54.1964 13.4679H4.36251C4.24944 13.4679 4.13638 13.4114 4.07042 13.3172C4.00446 13.223 3.98562 13.1006 4.03273 12.997L4.81477 10.9627L7.18916 4.775C7.53778 3.86144 8.42347 3.24927 9.40337 3.24927H45.0192C45.4526 3.24927 45.8672 3.43763 46.1405 3.76726L49.4382 7.65693L54.253 13.336C54.253 13.3643 54.2812 13.3925 54.2624 13.4302Z" fill="white"/>
<path d="M5.04093 13.3171C4.97497 13.2229 4.95613 13.1004 5.00324 12.9968L8.15025 4.78427C8.49887 3.87072 9.38455 3.25854 10.3645 3.25854H9.39398C8.41407 3.25854 7.52838 3.87072 7.17976 4.78427L4.03276 12.9968C3.99507 13.1099 4.00449 13.2229 4.07044 13.3171C4.1364 13.4112 4.24004 13.4677 4.36253 13.4677H5.33302C5.21053 13.4772 5.10688 13.4207 5.04093 13.3171Z" fill="#DDDEDB"/>
<path d="M78.4397 13.9197H59.4351C59.1336 13.9197 58.851 13.7879 58.6531 13.5618L50.0789 3.55043C49.8245 3.25846 50.0318 2.8064 50.4275 2.8064H69.5546C69.7995 2.8064 70.0351 2.91 70.1953 3.09836L78.7789 13.1663C79.0427 13.4677 78.826 13.9197 78.4397 13.9197Z" fill="#111820"/>
<path d="M78.4397 13.4773H59.4352C59.2656 13.4773 59.1054 13.402 59.0017 13.2795L56.6745 10.5483L51.1813 4.13457L50.4276 3.25869C50.4276 3.25869 50.4276 3.25869 50.4276 3.24927H51.5676H57.0985H69.564C69.6771 3.24927 69.7807 3.29636 69.8561 3.38112L72.1551 6.07469L78.4397 13.4773C78.4491 13.4679 78.4491 13.4679 78.4397 13.4773Z" fill="#F2F2F2"/>
<path d="M78.449 13.4679L69.856 3.39992C69.7806 3.31516 69.677 3.26807 69.5639 3.26807H50.4369H68.7913C68.9044 3.26807 69.008 3.31516 69.0834 3.39992L77.667 13.4679V13.4773L78.449 13.4679C78.449 13.4773 78.449 13.4679 78.449 13.4679Z" fill="white"/>
<path d="M54.2529 13.3548C54.2623 13.3642 54.2812 13.3925 54.2623 13.4301C54.2435 13.4678 54.2152 13.4678 54.1964 13.4678H45.6976C47.1392 11.5842 48.3735 9.6158 49.4288 7.66626L54.2529 13.3548Z" fill="#111820"/>
<path d="M52.3025 34.7338C52.3213 35.2518 52.359 35.7603 52.4156 36.2501H18.769V34.1687C18.769 29.017 16.6019 24.8448 13.926 24.8448H9.49753C6.82163 24.8448 4.65453 29.017 4.65453 34.1687C4.65453 34.8374 4.72048 35.7133 4.72048 35.7133L1.49809 33.905C0.876231 33.5565 0.489921 32.8972 0.489921 32.1909L0.480499 16.9053C0.480499 16.83 0.480499 16.7641 0.480499 16.6887C4.22111 20.051 9.83672 22.5562 18.2507 22.1324C33.0247 21.3789 44.9155 21.087 54.8748 25.9373C53.3389 27.5007 52.2931 30.5992 52.2931 34.1781C52.2931 34.3665 52.2931 34.5454 52.3025 34.7338Z" fill="#B3B3B3"/>
<path d="M50.9834 8.79663L54.5261 12.9877L54.1964 13.9201H50.9834V8.79663Z" fill="#111820"/>
<path d="M46.3665 1.83667H35.0411L20.6251 1.87434C20.0881 1.87434 19.6452 2.28874 19.5981 2.80673C19.5981 2.83499 19.5981 2.87266 19.5981 2.91033V32.615C19.5981 33.4249 20.2577 34.0842 21.068 34.0842H51.4262V7.83599L46.3665 1.83667ZM35.0411 33.7546H21.0586C20.4273 33.7546 19.909 33.2366 19.909 32.6055V2.91033C19.909 2.87266 19.909 2.8444 19.9185 2.80673C19.9656 2.45826 20.2671 2.19456 20.6251 2.19456L35.0411 2.15688V33.7546ZM51.0965 33.7546H35.3614V2.15688H46.2158L51.0965 7.94901V33.7546Z" fill="#32323A"/>
<path d="M37.7924 33.9146H37.472V27.1054C37.472 25.8527 36.4544 24.8356 35.2013 24.8356V24.5154C36.6334 24.5154 37.7924 25.6738 37.7924 27.1054V33.9146Z" fill="#111820"/>
<path d="M33.7031 17.461H29.6233C29.5103 17.461 29.416 17.3668 29.416 17.2538V17.0278C29.416 16.9147 29.5103 16.8206 29.6233 16.8206H33.7031C33.8162 16.8206 33.9104 16.9147 33.9104 17.0278V17.2538C33.9104 17.3762 33.8162 17.461 33.7031 17.461Z" fill="#111820"/>
<path d="M51.4169 9.31461V13.9201H51.0965V8.92847L51.4169 9.31461Z" fill="#111820"/>
<path d="M20.0975 3.25854C17.3274 7.62854 14.7175 10.9531 12.4373 13.4772H4.36251C4.24944 13.4772 4.13638 13.4207 4.07042 13.3265C4.00446 13.2323 3.98562 13.1099 4.03273 13.0063L4.81477 10.972C9.27146 8.77754 13.1063 5.99921 16.2533 3.26796H20.0975V3.25854Z" fill="#F2F2F2"/>
<path d="M34.7395 3.25854C34.259 7.18589 33.5241 10.6141 32.742 13.4677H25.6942C28.6622 9.97364 30.7068 6.45128 32.1107 3.25854H34.7395Z" fill="#F2F2F2"/>
<path d="M56.6745 10.5483L51.1813 4.13457C51.3132 3.84261 51.4452 3.54123 51.5676 3.24927H57.0985C57.2115 5.96168 57.0231 8.40096 56.6745 10.5483Z" fill="white"/>
<path d="M78.4397 13.4775H64.7869C71.6086 12.3097 71.9195 8.43885 72.1551 6.09375L78.4397 13.4775C78.4491 13.4681 78.4491 13.4681 78.4397 13.4775Z" fill="white"/>
<path d="M21.2094 3.25854H18.2414V13.4772H21.2094V3.25854Z" fill="#36385C"/>
<path d="M19.9185 2.8064C19.9185 2.83465 19.9091 2.87232 19.9091 2.91V13.9292H19.5887V2.91C19.5887 2.87232 19.5887 2.84407 19.5887 2.8064H19.9185Z" fill="#111820"/>
<path d="M36.69 3.25854H33.722V13.4772H36.69V3.25854Z" fill="#36385C"/>
<path d="M35.3615 2.8064H35.0411V13.9197H35.3615V2.8064Z" fill="#111820"/>
<path d="M52.4156 36.2502H18.769V34.7339H52.3025C52.3119 35.2519 52.359 35.7605 52.4156 36.2502Z" fill="#36385C"/>
<path d="M76.0181 28.8476C75.302 28.4991 74.3975 28.7346 73.5778 29.375C73.003 29.8365 72.4659 30.4958 72.0796 31.3057C71.5803 32.3417 71.4107 33.406 71.5426 34.2724C71.6556 35.0353 72.0137 35.638 72.5978 35.9206C73.8322 36.5139 75.5941 35.412 76.5363 33.4531C77.488 31.5129 77.2524 29.4409 76.0181 28.8476Z" fill="#B3B3B3"/>
<path d="M75.9899 33.1987C75.2738 34.6773 73.9453 35.5061 73.0125 35.054C72.579 34.8468 72.3058 34.3853 72.221 33.8108C72.1173 33.161 72.2493 32.351 72.6261 31.5693C72.9182 30.9572 73.3234 30.458 73.7568 30.1095C74.3692 29.6198 75.0571 29.4503 75.5941 29.7046C76.5269 30.166 76.706 31.7294 75.9899 33.1987Z" fill="#111820"/>
<path d="M75.1042 31.7576C75.0759 32.172 74.9252 32.6147 74.6425 33.0102C74.3598 33.4058 73.9924 33.6884 73.6155 33.8485C73.1444 34.0462 72.645 34.0462 72.2399 33.8202C72.1362 33.1704 72.2681 32.3604 72.645 31.5787C72.9371 30.9665 73.3422 30.4674 73.7757 30.1189C74.0489 30.1283 74.3127 30.2037 74.5389 30.3638C74.944 30.6651 75.1419 31.1926 75.1042 31.7576Z" fill="white"/>
<path d="M95.767 33.2553C95.0509 34.7339 93.7224 35.5627 92.7896 35.1107C92.3562 34.9035 92.083 34.442 91.9982 33.8675C91.8945 33.2176 92.0264 32.4077 92.4033 31.626C92.6954 31.0138 93.1005 30.5146 93.534 30.1662C94.1464 29.6764 94.8342 29.5069 95.3713 29.7612C96.2947 30.2227 96.4737 31.7861 95.767 33.2553Z" fill="#111820"/>
<path d="M94.8719 31.8048C94.8436 32.2192 94.6929 32.6618 94.4102 33.0574C94.1275 33.4529 93.7601 33.7355 93.3832 33.8956C92.9121 34.0934 92.4127 34.0934 92.0076 33.8673C91.9039 33.2175 92.0358 32.4075 92.4127 31.6258C92.7048 31.0136 93.1099 30.5145 93.5434 30.166C93.8166 30.1754 94.0804 30.2508 94.3066 30.4109C94.7117 30.7217 94.9096 31.2397 94.8719 31.8048Z" fill="white"/>
<path d="M48.9953 17.7249H46.2346C46.0556 17.7249 45.9048 17.5742 45.9048 17.3952V8.69291C45.9048 8.51397 46.0556 8.36328 46.2346 8.36328H48.9953C49.1743 8.36328 49.3251 8.51397 49.3251 8.69291C49.9281 11.5937 49.9281 14.4945 49.3251 17.3952C49.3251 17.5742 49.1743 17.7249 48.9953 17.7249Z" fill="#B3B3B3"/>
<path d="M46.489 17.3952V8.69291C46.489 8.51397 46.6398 8.36328 46.8188 8.36328H46.2346C46.0556 8.36328 45.9048 8.51397 45.9048 8.69291V17.3952C45.9048 17.5742 46.0556 17.7249 46.2346 17.7249H46.8188C46.6304 17.7249 46.489 17.5742 46.489 17.3952Z" fill="#4D4D66"/>
<path d="M50.1072 16.4438H48.6656C48.3829 16.4438 48.1568 16.2177 48.1568 15.9352V15.031C48.1568 14.7485 48.3829 14.5225 48.6656 14.5225H50.1072C50.3899 14.5225 50.616 14.7485 50.616 15.031V15.9352C50.6066 16.2177 50.3804 16.4438 50.1072 16.4438Z" fill="#B3B3B3"/>
<path d="M1.03644 27.3878H0.188444C0.0847996 27.3878 0 27.3031 0 27.1995V18.8927C0 18.7891 0.0847996 18.7043 0.188444 18.7043H1.03644C1.14008 18.7043 1.22488 18.7891 1.22488 18.8927V27.1995C1.22488 27.3031 1.14008 27.3878 1.03644 27.3878Z" fill="#111820"/>
<path d="M1.03646 18.7043H0.584198C0.687842 18.7043 0.772642 18.7891 0.772642 18.8927V27.1995C0.772642 27.3031 0.687842 27.3878 0.584198 27.3878H1.03646C1.14011 27.3878 1.22491 27.3031 1.22491 27.1995V18.8927C1.22491 18.7891 1.14011 18.7043 1.03646 18.7043Z" fill="#B3B3B3"/>
<path d="M76.5741 19.5048V22.867C76.5741 22.9612 76.4987 23.046 76.3951 23.046H71.1186C68.9421 23.046 67.1331 21.4261 66.8315 19.3353H76.4045C76.4987 19.3258 76.5741 19.4012 76.5741 19.5048Z" fill="white"/>
<path d="M96.3229 19.4013V22.9707C96.3135 22.9896 96.257 23.0461 96.1439 23.0461H93.0911C92.9121 23.0461 92.7896 22.9425 92.7896 22.8671V19.5049C92.7896 19.4389 92.9121 19.3259 93.0911 19.3259H96.1533C96.257 19.3259 96.3229 19.3824 96.3229 19.4013Z" fill="white"/>
<path d="M91.3858 29.3468H78.2889C77.8178 29.3468 77.4315 28.9607 77.4315 28.4898V26.0128C77.4315 25.5419 77.8178 25.1558 78.2889 25.1558H91.3858C91.8569 25.1558 92.2432 25.5419 92.2432 26.0128V28.4898C92.2432 28.9607 91.8569 29.3468 91.3858 29.3468Z" fill="#36385C"/>
<path d="M91.3858 25.1558H90.5189C90.99 25.1558 91.3763 25.5419 91.3763 26.0128V28.4898C91.3763 28.9607 90.99 29.3468 90.5189 29.3468H91.3858C91.8569 29.3468 92.2432 28.9607 92.2432 28.4898V26.0128C92.2432 25.5419 91.8569 25.1558 91.3858 25.1558Z" fill="#111820"/>
<path d="M91.4329 20.0981H78.1947C78.0816 20.0981 77.9874 20.0039 77.9874 19.8909V19.4106C77.9874 19.2976 78.0816 19.2034 78.1947 19.2034H91.4329C91.5459 19.2034 91.6402 19.2976 91.6402 19.4106V19.8909C91.6402 20.0039 91.5459 20.0981 91.4329 20.0981Z" fill="#111820"/>
<path d="M91.4328 19.2034H90.566C90.679 19.2034 90.7733 19.2976 90.7733 19.4106V19.8909C90.7733 20.0039 90.679 20.0981 90.566 20.0981H91.4328C91.5459 20.0981 91.6401 20.0039 91.6401 19.8909V19.4106C91.6401 19.2976 91.5459 19.2034 91.4328 19.2034Z" fill="#111820"/>
<path d="M91.4329 21.6708H78.1947C78.0816 21.6708 77.9874 21.5767 77.9874 21.4636V20.9833C77.9874 20.8703 78.0816 20.7761 78.1947 20.7761H91.4329C91.5459 20.7761 91.6402 20.8703 91.6402 20.9833V21.4636C91.6402 21.5861 91.5459 21.6708 91.4329 21.6708Z" fill="#111820"/>
<path d="M91.4328 20.7761H90.566C90.679 20.7761 90.7733 20.8703 90.7733 20.9833V21.4636C90.7733 21.5767 90.679 21.6708 90.566 21.6708H91.4328C91.5459 21.6708 91.6401 21.5767 91.6401 21.4636V20.9833C91.6401 20.8703 91.5459 20.7761 91.4328 20.7761Z" fill="#111820"/>
<path d="M91.4329 23.2531H78.1947C78.0816 23.2531 77.9874 23.1589 77.9874 23.0459V22.5656C77.9874 22.4526 78.0816 22.3584 78.1947 22.3584H91.4329C91.5459 22.3584 91.6402 22.4526 91.6402 22.5656V23.0459C91.6402 23.1589 91.5459 23.2531 91.4329 23.2531Z" fill="#111820"/>
<path d="M91.4328 22.3491H90.566C90.679 22.3491 90.7733 22.4433 90.7733 22.5563V23.0366C90.7733 23.1497 90.679 23.2438 90.566 23.2438H91.4328C91.5459 23.2438 91.6401 23.1497 91.6401 23.0366V22.5563C91.6401 22.4433 91.5459 22.3491 91.4328 22.3491Z" fill="#111820"/>
<path d="M90.9335 35.2329H77.6953C77.5823 35.2329 77.488 35.1387 77.488 35.0257V34.5453C77.488 34.4323 77.5823 34.3381 77.6953 34.3381H90.9335C91.0466 34.3381 91.1408 34.4323 91.1408 34.5453V35.0257C91.1408 35.1481 91.0466 35.2329 90.9335 35.2329Z" fill="#111820"/>
<path d="M72.1928 19.3259V23.0367H71.1186C68.9421 23.0367 67.1331 21.4167 66.8315 19.3259H72.1928Z" fill="#F4DD7A"/>
<path d="M96.3229 19.4012V22.9707C96.3135 22.9895 96.257 23.046 96.1439 23.046H95.6539V19.3353H96.1439C96.257 19.3259 96.3229 19.3824 96.3229 19.4012Z" fill="#F4DD7A"/>
</svg>
