<svg width="93" height="35" viewBox="0 0 93 35" fill="none" xmlns="http://www.w3.org/2000/svg">
<path opacity="0.47" d="M47.3355 35C69.1564 35 86.8458 34.245 86.8458 33.3136C86.8458 32.3822 69.1564 31.6272 47.3355 31.6272C25.5147 31.6272 7.82532 32.3822 7.82532 33.3136C7.82532 34.245 25.5147 35 47.3355 35Z" fill="#B5B5B5"/>
<path d="M14.7701 33.5756C19.3676 33.5756 23.0946 29.8516 23.0946 25.2579C23.0946 20.6641 19.3676 16.9402 14.7701 16.9402C10.1726 16.9402 6.44556 20.6641 6.44556 25.2579C6.44556 29.8516 10.1726 33.5756 14.7701 33.5756Z" fill="#313233"/>
<path d="M60.8806 33.599C65.3497 33.599 68.9726 29.979 68.9726 25.5136C68.9726 21.0482 65.3497 17.4282 60.8806 17.4282C56.4115 17.4282 52.7886 21.0482 52.7886 25.5136C52.7886 29.979 56.4115 33.599 60.8806 33.599Z" fill="#313233"/>
<path d="M32.9538 33.4129C37.4229 33.4129 41.0458 29.793 41.0458 25.3276C41.0458 20.8621 37.4229 17.2422 32.9538 17.2422C28.4847 17.2422 24.8618 20.8621 24.8618 25.3276C24.8618 29.793 28.4847 33.4129 32.9538 33.4129Z" fill="#111820"/>
<path d="M76.8785 33.2272C81.0522 33.2272 84.4357 29.8465 84.4357 25.6762C84.4357 21.5059 81.0522 18.1252 76.8785 18.1252C72.7048 18.1252 69.3213 21.5059 69.3213 25.6762C69.3213 29.8465 72.7048 33.2272 76.8785 33.2272Z" fill="#111820"/>
<path d="M1.30671 5.32334V6.36886C1.30671 6.36886 2.0043 7.06588 2.0043 7.76289C2.0043 8.3205 0.771895 15.523 0.260332 18.3808C0.0510565 19.6354 0.213826 20.9365 0.841654 22.0517C1.44623 23.0972 2.46936 24.0963 4.25983 24.0963L7.23619 24.2821L13.2122 16.917L53.8117 10.4115C53.8117 10.4115 44.6733 -0.485127 29.5589 0.235122C29.5589 0.235122 21.4669 -0.113383 7.77101 4.81219C7.81752 4.78896 4.30633 6.55473 1.30671 5.32334Z" fill="#F9BE00"/>
<path d="M35.3954 0.514118L47.6961 0.397949C48.2077 0.397949 48.7193 0.421182 49.2308 0.490883C51.1841 0.723221 56.3229 1.39701 59.6714 2.51223C63.8801 3.90626 71.2745 10.2491 71.2745 10.2491C71.2745 10.2491 79.3665 11.6431 83.5753 13.4089C87.7841 15.1747 90.5977 16.2202 91.3185 19.7285V21.4943C91.3185 21.4943 92.3649 24.3056 92.0161 25.6996C91.6673 27.0936 90.9697 27.8139 90.9697 27.8139H71.2745C71.2745 27.8139 74.4369 21.1458 72.6697 19.7285C70.9025 18.3345 52.556 10.8532 52.556 10.8532L35.3954 0.514118Z" fill="#FCD21D"/>
<path d="M12.468 18.0556C13.6074 17.7303 14.8166 17.707 15.956 18.0556C17.4907 18.497 19.4672 19.3334 20.281 20.7507C21.6762 23.2135 21.6762 24.6075 21.6762 24.6075C21.6762 24.6075 21.6762 26.7218 24.4898 26.7218C27.3034 26.7218 51.2073 27.4188 51.2073 27.4188C51.2073 27.4188 52.2537 16.1736 61.7409 18.2879C61.7409 18.2879 65.6009 19.6819 66.6705 22.865C67.7169 26.0248 66.6705 27.7905 70.8793 27.7905C75.088 27.7905 75.088 27.0935 75.4601 26.0247C75.8089 24.9792 75.4601 18.2879 71.6001 16.1968C67.7401 14.0826 54.3697 10.5743 54.3697 10.5743C54.3697 10.5743 51.6259 8.01855 49.4866 6.48512C47.3473 4.95169 39.4181 -2.20433 23.6992 0.676666C7.98024 3.55766 6.93386 6.36895 4.12026 6.36895C1.77172 6.36895 5.86423 16.1039 8.70108 18.6596C9.02662 18.9849 11.0264 18.4738 12.468 18.0556Z" fill="#F9BE00"/>
<path d="M44.5338 1.81513L54.5092 1.69896C56.0904 1.67573 57.6716 1.9313 59.1831 2.48891C61.5316 3.34856 64.508 4.92845 67.7169 7.78621L70.5305 10.249H55.4161C55.4394 10.2258 51.9282 5.67194 44.5338 1.81513Z" fill="white"/>
<path d="M76.8785 18.3111C76.8785 18.3111 76.8785 14.8028 65.9729 13.3855C65.9729 13.3855 66.0194 13.8269 66.2519 14.431C68.4842 15.1745 70.4607 15.918 71.6001 16.5453C72.4605 17.01 73.1348 17.6838 73.6696 18.4969C77.4366 18.8687 76.8785 18.3111 76.8785 18.3111Z" fill="white"/>
<path d="M71.6001 16.5454C70.4607 15.9181 68.461 15.1746 66.252 14.4312C66.7403 15.7322 68.1354 17.8233 71.9489 18.3112C72.6 18.4041 73.1813 18.4506 73.6696 18.4971C73.1348 17.7071 72.4605 17.0101 71.6001 16.5454Z" fill="#F4DD7A"/>
<path d="M12.9564 33.599C17.3613 33.599 20.9321 30.0311 20.9321 25.6299C20.9321 21.2286 17.3613 17.6606 12.9564 17.6606C8.55151 17.6606 4.98065 21.2286 4.98065 25.6299C4.98065 30.0311 8.55151 33.599 12.9564 33.599Z" fill="#111820"/>
<path d="M58.0669 33.599C62.3434 33.599 65.8101 30.1351 65.8101 25.8621C65.8101 21.5892 62.3434 18.1252 58.0669 18.1252C53.7905 18.1252 50.3237 21.5892 50.3237 25.8621C50.3237 30.1351 53.7905 33.599 58.0669 33.599Z" fill="#111820"/>
<path d="M2.70184 11.4573H7.44542C7.44542 10.7138 7.28266 10.1097 7.05013 9.66824C6.63158 8.83182 5.74797 8.29745 4.7946 8.27421L4.30629 8.25098C4.23653 8.46008 4.19003 8.69242 4.09701 8.90153C3.77147 9.85412 3.28316 10.7138 2.70184 11.4573Z" fill="white"/>
<path d="M1.4462 11.4571H2.70185C3.28317 10.7136 3.77148 9.85399 4.09702 8.9014C4.16677 8.6923 4.23653 8.48319 4.30629 8.25085L1.95776 8.18115L1.4462 11.4571Z" fill="#F4DD7A"/>
<path d="M9.5149 25.7226C9.5149 22.9578 11.4914 20.6344 14.1422 20.1232C13.7934 20.0535 13.4214 20.0071 13.0493 20.0071C9.9102 20.0071 7.35239 22.5628 7.35239 25.6994C7.35239 28.8359 9.9102 31.3917 13.0493 31.3917C13.4214 31.3917 13.7934 31.3452 14.1422 31.2755C11.5146 30.8108 9.5149 28.4874 9.5149 25.7226Z" fill="#F9BE00"/>
<path d="M18.7463 25.7229C18.7463 22.9581 16.7698 20.6347 14.119 20.1235C11.4914 20.6347 9.4917 22.9348 9.4917 25.7229C9.4917 28.5109 11.4682 30.8111 14.119 31.3222C16.7698 30.8111 18.7463 28.4877 18.7463 25.7229Z" fill="white"/>
<path d="M55.0906 25.9552C55.0906 23.2601 57.0205 21.0296 59.5784 20.5185C59.2296 20.4488 58.8808 20.4255 58.532 20.4255C55.4859 20.4255 52.9978 22.9116 52.9978 25.9552C52.9978 28.9988 55.4859 31.4848 58.532 31.4848C58.904 31.4848 59.2528 31.4384 59.5784 31.3919C57.0205 30.8808 55.0906 28.6503 55.0906 25.9552Z" fill="#F9BE00"/>
<path d="M64.0429 25.955C64.0429 23.2599 62.1129 21.0295 59.5551 20.5183C56.9973 21.0062 55.0673 23.2599 55.0673 25.955C55.0673 28.6501 56.9973 30.8806 59.5551 31.3917C62.1129 30.8806 64.0429 28.6501 64.0429 25.955Z" fill="white"/>
<path d="M5.16665 20.5881C5.14339 20.5881 5.14339 20.5881 5.12014 20.5881L0.144025 19.5426C0.0510138 19.5193 -0.0187462 19.4264 0.00450668 19.3335C0.0277596 19.2405 0.120777 19.1708 0.213788 19.1941L5.07364 20.2164C5.42243 19.5426 7.14314 16.5454 10.9799 16.5454C11.0729 16.5454 11.1659 16.6151 11.1659 16.7313C11.1659 16.8242 11.0961 16.9172 10.9799 16.9172C6.93387 16.9172 5.35267 20.4719 5.35267 20.4952C5.30616 20.5649 5.23641 20.5881 5.16665 20.5881Z" fill="#111820"/>
<path d="M48.417 25.5133C48.417 25.5133 48.3937 25.5133 48.417 25.5133L24.8386 23.7476C24.7921 23.7476 24.7456 23.7243 24.7223 23.6779C24.699 23.6314 24.6758 23.5849 24.6758 23.5385C25.0013 19.914 22.3738 15.6854 19.6532 13.6873C19.1881 13.3388 18.63 12.9671 18.072 12.6186C16.9093 11.8518 15.8165 11.1548 15.5607 10.6437C15.1654 9.85373 16.7001 8.36677 17.0023 8.06473C17.0721 7.99503 17.1884 7.99503 17.2581 8.06473C17.3279 8.13443 17.3279 8.2506 17.2581 8.3203C16.5605 8.97085 15.6769 10.0861 15.8862 10.481C16.0955 10.8993 17.2116 11.6195 18.2813 12.3165C18.8393 12.665 19.3974 13.0368 19.8857 13.3853C22.6063 15.3834 25.3269 19.5422 25.0711 23.3758L48.2775 25.0951C48.3937 24.189 49.1146 19.9604 52.9048 17.7532C52.9978 17.7068 53.0908 17.73 53.1373 17.8229C53.1838 17.9159 53.1606 18.0088 53.0676 18.0553C48.975 20.4484 48.5798 25.2345 48.5798 25.281C48.5798 25.3275 48.5565 25.3739 48.51 25.3972C48.4867 25.4901 48.4402 25.5133 48.417 25.5133Z" fill="#111820"/>
<path d="M36.465 24.6307C36.4418 24.6307 36.4418 24.6307 36.4185 24.6307C36.3255 24.6075 36.2557 24.5145 36.279 24.4216C36.9533 21.1456 34.0235 10.2257 34.0002 10.1096C33.977 10.0166 34.0235 9.92369 34.1165 9.90045C34.2095 9.87722 34.3025 9.92369 34.3258 10.0166C34.442 10.4581 37.3021 21.1224 36.6045 24.4913C36.6045 24.561 36.5348 24.6307 36.465 24.6307Z" fill="#111820"/>
<path d="M92.1789 25.3278H74.2509C70.6235 25.3278 70.0189 22.2609 70.0189 22.2377C70.0189 22.1912 70.0189 22.1448 70.0654 22.0983C70.0887 22.0518 70.1584 22.0286 70.2049 22.0286L77.9714 22.0054C77.9946 22.0054 78.0412 22.0054 78.0644 22.0286L80.1339 23.3994H87.0168L89.0863 22.0286C89.1095 22.0054 89.156 22.0054 89.1793 22.0054H91.5278C91.6208 22.0054 91.7139 22.0751 91.7139 22.1912C91.7139 22.2842 91.6441 22.3771 91.5278 22.3771H89.2258L87.1563 23.7479C87.133 23.7711 87.0865 23.7711 87.0633 23.7711H80.0409C80.0177 23.7711 79.9711 23.7711 79.9479 23.7479L77.8784 22.3771L70.391 22.4003C70.577 23.0509 71.4141 25.0025 74.2277 25.0025H92.1557C92.2487 25.0025 92.3417 25.0722 92.3417 25.1884C92.3417 25.2581 92.2719 25.3278 92.1789 25.3278Z" fill="#111820"/>
<path d="M23.4434 11.4572H20.6298C20.5368 11.4572 20.4438 11.3875 20.4438 11.2713C20.4438 11.1551 20.5135 11.0854 20.6298 11.0854H23.4434C23.5364 11.0854 23.6294 11.1551 23.6294 11.2713C23.6294 11.3875 23.5597 11.4572 23.4434 11.4572Z" fill="#F9BE00"/>
<path d="M39.7902 13.037H36.9766C36.8836 13.037 36.7906 12.9673 36.7906 12.8512C36.7906 12.7582 36.8603 12.6653 36.9766 12.6653H39.7902C39.8832 12.6653 39.9762 12.735 39.9762 12.8512C39.9762 12.9673 39.9064 13.037 39.7902 13.037Z" fill="#F9BE00"/>
<path d="M87.598 18.497L90.9697 18.6364C90.9697 18.6364 90.6674 17.8465 90.2256 17.2656C89.7838 16.6615 89.249 16.2898 89.2722 16.313C89.3652 16.3827 87.598 17.0798 87.598 18.497Z" fill="white"/>
<path d="M30.8378 5.11419C27.4196 5.11419 26.071 3.18578 25.6757 2.48877C19.6764 3.32519 14.6538 5.3233 14.6538 5.3233C15.3514 8.83161 22.7458 9.52862 22.7458 9.52862L35.3954 10.2256H38.2787C38.209 9.97006 38.116 9.55185 37.9997 8.87807C37.6276 6.62439 35.0001 5.11419 30.8378 5.11419Z" fill="#F2F2F2"/>
<path d="M29.0706 2.16366C27.9312 2.21013 26.7918 2.32629 25.6757 2.48893C26.0477 3.18594 27.4196 5.11435 30.8378 5.11435C35.0001 5.11435 37.6509 6.62455 38.0229 8.90146C38.1392 9.57524 38.2322 9.99345 38.302 10.249H49.8121C45.6034 3.90619 36.465 1.81515 29.0706 2.16366Z" fill="white"/>
<path d="M47.8821 11.8057H44.7198C44.7198 11.8057 43.3246 11.4572 44.0222 9.34291C44.7198 7.22862 48.603 8.9944 49.6494 10.3884" fill="#F9BE00"/>
<path d="M47.8822 11.9915H44.6733C44.65 11.9915 44.1385 11.8521 43.8594 11.3177C43.5804 10.8066 43.5804 10.1328 43.8594 9.31964C44.0454 8.73879 44.5105 8.36705 45.1383 8.25088C46.6033 8.01854 48.9518 9.20347 49.7889 10.3187L49.5099 10.5278C48.7425 9.50551 46.5103 8.39028 45.2081 8.59939C44.6965 8.69232 44.3477 8.97113 44.185 9.43581C43.9524 10.1561 43.9292 10.7369 44.1617 11.1551C44.3477 11.5036 44.6733 11.643 44.743 11.6663H47.8822V11.9915Z" fill="#111820"/>
</svg>
