<svg width="118" height="44" viewBox="0 0 118 44" fill="none" xmlns="http://www.w3.org/2000/svg">
<path opacity="0.47" d="M57.8367 43.3189C89.779 43.3189 115.673 42.057 115.673 40.5005C115.673 38.944 89.779 37.6821 57.8367 37.6821C25.8944 37.6821 0 38.944 0 40.5005C0 42.057 25.8944 43.3189 57.8367 43.3189Z" fill="#B5B5B5"/>
<path d="M20.797 41.6878C26.5566 41.6878 31.2257 37.0647 31.2257 31.3618C31.2257 25.6589 26.5566 21.0358 20.797 21.0358C15.0373 21.0358 10.3682 25.6589 10.3682 31.3618C10.3682 37.0647 15.0373 41.6878 20.797 41.6878Z" fill="#313233"/>
<path d="M78.561 41.6879C84.1534 41.6879 88.687 37.199 88.687 31.6617C88.687 26.1244 84.1534 21.6355 78.561 21.6355C72.9686 21.6355 68.435 26.1244 68.435 31.6617C68.435 37.199 72.9686 41.6879 78.561 41.6879Z" fill="#313233"/>
<path d="M43.5562 41.4719C49.1486 41.4719 53.6821 36.983 53.6821 31.4457C53.6821 25.9084 49.1486 21.4196 43.5562 21.4196C37.9638 21.4196 33.4302 25.9084 33.4302 31.4457C33.4302 36.983 37.9638 41.4719 43.5562 41.4719Z" fill="#111820"/>
<path d="M98.5949 41.2561C103.826 41.2561 108.067 37.0572 108.067 31.8776C108.067 26.6979 103.826 22.499 98.5949 22.499C93.3637 22.499 89.123 26.6979 89.123 31.8776C89.123 37.0572 93.3637 41.2561 98.5949 41.2561Z" fill="#111820"/>
<path d="M3.92442 6.58424V7.89148C3.92442 7.89148 4.80862 8.76698 4.80862 9.63047C4.80862 10.3261 3.25824 19.2729 2.6405 22.8108C2.36192 24.3699 2.59206 26.001 3.37936 27.3802C4.13033 28.6874 5.42636 29.9107 7.67926 29.9107L11.422 30.1266L18.9075 20.9759L69.7674 12.9046C69.7674 12.9046 58.3212 -0.611581 39.3774 0.263911C39.3774 0.263911 29.2514 -0.167838 12.0761 5.93662C12.064 5.93662 7.66715 8.11935 3.92442 6.58424Z" fill="#B3B3B3"/>
<path d="M46.6206 0.635616L62.0276 0.491699C62.6695 0.491699 63.2994 0.515685 63.9413 0.587644C66.4002 0.875476 72.8318 1.703 77.0227 3.09419C82.3037 4.83318 91.5576 12.6886 91.5576 12.6886C91.5576 12.6886 101.684 14.4276 106.965 16.6103C112.246 18.7931 115.77 20.1003 116.654 24.4538V26.6365C116.654 26.6365 117.975 30.1265 117.539 31.8655C117.103 33.6045 116.218 34.48 116.218 34.48H91.5576C91.5576 34.48 95.5183 26.1928 93.3139 24.4538C91.1094 22.7148 68.1201 13.4442 68.1201 13.4442L46.6206 0.635616Z" fill="#CCCCCC"/>
<path d="M17.89 22.415C19.3193 22.0073 20.8454 21.9953 22.2747 22.415C24.1884 22.9787 26.6836 24.0101 27.701 25.7731C29.4573 28.8193 29.4573 30.5703 29.4573 30.5703C29.4573 30.5703 29.4573 33.1848 32.982 33.1848C36.5068 33.1848 66.4486 34.0603 66.4486 34.0603C66.4486 34.0603 67.7688 20.1124 79.6632 22.7269C79.6632 22.7269 84.5082 24.4659 85.8284 28.3996C87.1487 32.3213 85.8284 34.504 91.1094 34.504C96.3904 34.504 96.3904 33.6285 96.8386 32.3213C97.2746 31.014 96.8386 22.7269 91.9936 20.1124C87.1487 17.4979 70.4215 13.1324 70.4215 13.1324C70.4215 13.1324 66.9937 9.95427 64.3047 8.04738C61.6157 6.14049 51.6715 -2.73436 31.9767 0.839564C12.282 4.41349 10.9738 7.90346 7.44912 7.90346C4.4937 7.90346 9.64146 19.9924 13.1783 23.1586C13.6022 23.5424 16.0974 22.9307 17.89 22.415Z" fill="#B3B3B3"/>
<path d="M58.0911 2.23073L70.6032 2.08681C72.6017 2.06283 74.576 2.38664 76.4535 3.05825C79.3846 4.11364 83.1274 6.0685 87.1608 9.64242L90.6855 12.6887H71.7417C71.7417 12.6887 67.3328 7.02794 58.0911 2.23073Z" fill="white"/>
<path d="M98.5949 22.7269C98.5949 22.7269 98.5949 18.3614 84.9442 16.6224C84.9442 16.6224 84.9927 17.1621 85.2834 17.9177C88.0692 18.8411 90.5523 19.7766 91.9936 20.5442C93.0595 21.1198 93.9074 21.9713 94.5857 22.9667C99.2853 23.3985 98.5949 22.7269 98.5949 22.7269Z" fill="white"/>
<path d="M91.9937 20.5441C90.5523 19.7645 88.0692 18.8411 85.2834 17.9176C85.9011 19.5247 87.6453 22.1392 92.4297 22.7268C93.2533 22.8228 93.968 22.9067 94.5857 22.9667C93.9074 21.9713 93.0595 21.1197 91.9937 20.5441Z" fill="#CCCCCC"/>
<path d="M18.5199 41.6877C24.032 41.6877 28.5005 37.2633 28.5005 31.8055C28.5005 26.3477 24.032 21.9232 18.5199 21.9232C13.0077 21.9232 8.53925 26.3477 8.53925 31.8055C8.53925 37.2633 13.0077 41.6877 18.5199 41.6877Z" fill="#111820"/>
<path d="M75.0363 41.6879C80.3879 41.6879 84.7262 37.3923 84.7262 32.0935C84.7262 26.7946 80.3879 22.499 75.0363 22.499C69.6847 22.499 65.3464 26.7946 65.3464 32.0935C65.3464 37.3923 69.6847 41.6879 75.0363 41.6879Z" fill="#111820"/>
<path d="M5.66861 14.2117H11.6279C11.6279 13.2763 11.422 12.5447 11.1313 11.981C10.5984 10.9256 9.48401 10.29 8.297 10.266L7.67927 10.254C7.60659 10.5179 7.52181 10.7937 7.42491 11.0576C7.00097 12.2329 6.39535 13.3003 5.66861 14.2117Z" fill="white"/>
<path d="M4.1061 14.2117H5.6686C6.39534 13.3002 7.00096 12.2328 7.4249 11.0455C7.5218 10.7817 7.60658 10.5178 7.67926 10.242L4.73595 10.17L4.1061 14.2117Z" fill="#CCCCCC"/>
<path d="M14.22 31.9254C14.22 28.4834 16.703 25.617 19.9976 24.9814C19.5615 24.8975 19.1013 24.8495 18.641 24.8495C14.6923 24.8495 11.4947 28.0157 11.4947 31.9254C11.4947 35.8351 14.6923 39.0013 18.641 39.0013C19.1013 39.0013 19.5615 38.9533 19.9976 38.8693C16.703 38.2337 14.22 35.3674 14.22 31.9254Z" fill="#B3B3B3"/>
<path d="M25.7873 31.9254C25.7873 28.4834 23.3043 25.6171 20.0097 24.9814C16.7151 25.6051 14.2321 28.4834 14.2321 31.9254C14.2321 35.3674 16.7151 38.2338 20.0097 38.8694C23.2921 38.2338 25.7873 35.3674 25.7873 31.9254Z" fill="white"/>
<path d="M71.2936 32.2012C71.2936 28.8552 73.7039 26.0728 76.9137 25.4611C76.4898 25.3772 76.0416 25.3292 75.5935 25.3292C71.766 25.3292 68.6531 28.3994 68.6531 32.2012C68.6531 36.003 71.7538 39.0732 75.5935 39.0732C76.0416 39.0732 76.4898 39.0253 76.9137 38.9413C73.7161 38.3297 71.2936 35.5473 71.2936 32.2012Z" fill="#B3B3B3"/>
<path d="M82.5218 32.2013C82.5218 28.8552 80.1114 26.0728 76.9016 25.4612C73.7039 26.0728 71.2815 28.8552 71.2815 32.2013C71.2815 35.5473 73.6918 38.3297 76.9016 38.9414C80.1114 38.3297 82.5218 35.5473 82.5218 32.2013Z" fill="white"/>
<path d="M8.76938 25.5572C8.75726 25.5572 8.74515 25.5572 8.72093 25.5572L2.47093 24.2499C2.34981 24.2259 2.27713 24.106 2.30136 23.9861C2.32558 23.8661 2.44671 23.7942 2.56783 23.8182L8.64825 25.0894C9.07219 24.2619 11.2403 20.5441 16.0368 20.5441C16.1579 20.5441 16.2548 20.64 16.2548 20.7599C16.2548 20.8799 16.1579 20.9758 16.0368 20.9758C10.9617 20.9758 8.9874 25.3773 8.97529 25.4252C8.93895 25.5092 8.85416 25.5572 8.76938 25.5572Z" fill="#999999"/>
<path d="M62.936 31.6616H62.9239L33.4181 29.4789C33.3575 29.4789 33.3091 29.4429 33.2606 29.4069C33.2243 29.3589 33.2001 29.299 33.2122 29.251C33.624 24.7536 30.3294 19.5006 26.9137 17.0181C26.3323 16.5983 25.6177 16.1306 24.9273 15.6869C23.4738 14.7514 22.1051 13.8639 21.7781 13.2283C21.2936 12.2568 23.1952 10.3859 23.5828 10.0261C23.6676 9.94219 23.813 9.94219 23.8978 10.0381C23.9825 10.1221 23.9825 10.266 23.8856 10.35C23.0257 11.1655 21.9113 12.5447 22.1657 13.0484C22.4322 13.5761 23.8251 14.4756 25.1574 15.3391C25.8479 15.7828 26.5625 16.2505 27.156 16.6823C30.5717 19.1648 33.9632 24.3218 33.6482 29.0831L62.718 31.2298C62.8633 30.1025 63.7717 24.8615 68.5319 22.1151C68.6409 22.0552 68.7742 22.0911 68.8347 22.1991C68.8953 22.307 68.8589 22.4389 68.7499 22.4989C63.6264 25.4612 63.1419 31.4217 63.1298 31.4817C63.1298 31.5417 63.0934 31.5896 63.0571 31.6256C63.0329 31.6376 62.9844 31.6616 62.936 31.6616Z" fill="#999999"/>
<path d="M47.953 30.5582C47.9409 30.5582 47.9288 30.5582 47.9045 30.5582C47.7834 30.5342 47.7107 30.4142 47.735 30.3063C48.5828 26.2407 44.9249 12.6885 44.8886 12.5446C44.8522 12.4247 44.9249 12.3048 45.046 12.2808C45.1671 12.2448 45.2883 12.3168 45.3125 12.4367C45.4699 13.0004 49.0431 26.2407 48.171 30.4023C48.1468 30.4862 48.0499 30.5582 47.953 30.5582Z" fill="#999999"/>
<path d="M117.757 31.4457H95.3004C90.7703 31.4457 89.9951 27.6319 89.983 27.596C89.9709 27.536 89.983 27.464 90.0315 27.4161C90.0678 27.3681 90.1405 27.3321 90.201 27.3321L99.9273 27.2961C99.9636 27.2961 100.012 27.3081 100.048 27.3321L102.64 29.0351H111.313L113.905 27.3321C113.941 27.3081 113.978 27.2961 114.026 27.2961H116.969C117.091 27.2961 117.187 27.3921 117.187 27.512C117.187 27.6319 117.091 27.7279 116.969 27.7279H114.099L111.507 29.4309C111.47 29.4549 111.434 29.4669 111.386 29.4669H102.58C102.531 29.4669 102.495 29.4549 102.459 29.4309L99.8667 27.7279L90.4917 27.7639C90.734 28.5794 91.7635 31.002 95.3125 31.002H117.769C117.89 31.002 117.987 31.0979 117.987 31.2179C117.987 31.3378 117.878 31.4457 117.757 31.4457Z" fill="#999999"/>
<path d="M31.6618 14.2237H28.1371C28.016 14.2237 27.9191 14.1278 27.9191 14.0079C27.9191 13.8879 28.016 13.792 28.1371 13.792H31.6618C31.7829 13.792 31.8798 13.8879 31.8798 14.0079C31.8798 14.1278 31.7829 14.2237 31.6618 14.2237Z" fill="#999999"/>
<path d="M52.1439 16.1786H48.6192C48.498 16.1786 48.4011 16.0826 48.4011 15.9627C48.4011 15.8428 48.498 15.7468 48.6192 15.7468H52.1439C52.265 15.7468 52.3619 15.8428 52.3619 15.9627C52.3619 16.0826 52.265 16.1786 52.1439 16.1786Z" fill="#999999"/>
<path d="M112.028 22.9428L116.255 23.1107C116.255 23.1107 115.867 22.1272 115.334 21.4196C114.789 20.6881 114.099 20.2083 114.147 20.2443C114.232 20.3283 112.028 21.1918 112.028 22.9428Z" fill="white"/>
<path d="M40.9157 6.33242C36.64 6.33242 34.9322 3.93381 34.4598 3.07031C26.938 4.10171 20.6638 6.59626 20.6638 6.59626C21.548 10.9617 30.7897 11.8252 30.7897 11.8252L46.6448 12.7007H50.2665C50.1696 12.3769 50.0484 11.8492 49.9152 11.0217C49.4307 8.20333 46.124 6.33242 40.9157 6.33242Z" fill="#F2F2F2"/>
<path d="M38.7112 2.66246C37.2699 2.73441 35.8406 2.86634 34.4598 3.05823C34.9322 3.92172 36.64 6.32033 40.9157 6.32033C46.124 6.32033 49.4428 8.19125 49.9152 11.0096C50.0605 11.8371 50.1696 12.3648 50.2665 12.6886H64.6923C59.4113 4.84519 47.953 2.23071 38.7112 2.66246Z" fill="white"/>
<path d="M62.2698 14.6554H58.3091C58.3091 14.6554 56.5528 14.2237 57.4249 11.6092C58.3091 8.9947 63.154 11.1774 64.4743 12.9164" fill="#B3B3B3"/>
<path d="M62.2698 14.8713L58.2485 14.8593C58.2243 14.8474 57.5823 14.6914 57.219 14.0198C56.8677 13.3962 56.8677 12.5567 57.219 11.5253C57.4612 10.7937 58.0305 10.338 58.8299 10.206C60.6589 9.90622 63.6022 11.3934 64.6439 12.7726L64.2926 13.0364C63.3357 11.7651 60.5378 10.3739 58.9026 10.6378C58.2606 10.7457 57.8246 11.0815 57.6308 11.6692C57.328 12.5807 57.3159 13.3003 57.6066 13.816C57.8488 14.2597 58.2485 14.4036 58.3333 14.4396H62.2698V14.8713Z" fill="#B3B3B3"/>
</svg>
