<svg width="65" height="61" viewBox="0 0 65 61" fill="none" xmlns="http://www.w3.org/2000/svg">
<path d="M12.5319 4.27991C13.6906 3.61446 14.8637 2.91943 16.0513 2.23918C17.0796 1.63288 18.1223 1.04137 19.1506 0.449851C20.3237 -0.230391 21.381 -0.156452 22.4238 0.789972C24.8279 2.99337 27.6811 4.33906 30.8963 4.51652C34.8356 4.72355 38.6446 4.13203 41.9322 1.61809C44.0033 0.0357906 44.3799 0.00621483 46.6247 1.39628C48.1309 2.31312 49.6227 3.25955 51.1434 4.14682C52.2875 4.81227 52.5917 5.77349 52.4179 7.06003C51.3172 15.0898 55.0393 21.9662 62.2083 25.2343C62.6573 25.4414 63.0918 25.678 63.5987 25.9294C64.2649 28.3546 63.9173 30.7798 63.9173 33.1902C63.9173 33.5747 63.787 33.9592 63.8014 34.3289C63.8594 35.6894 63.2656 36.4288 61.9476 36.7837C55.9227 38.4103 50.9841 46.6324 51.3027 52.4884C51.3317 53.1243 51.3461 53.7897 51.5199 54.3812C51.9544 55.8009 51.3751 56.7769 50.2454 57.4423C48.3482 58.5662 46.4364 59.6457 44.4957 60.6809C43.5254 61.1984 42.6129 61.021 41.7295 60.252C36.3708 55.6086 30.4038 55.4312 24.1183 57.8416C23.4231 58.1078 22.8003 58.581 22.192 59.0246C21.6272 59.4239 21.1348 59.9267 20.6568 60.3408C18.6003 60.5921 12.7057 57.2205 11.4457 55.0319C11.8368 52.3257 12.1699 49.516 11.2864 46.7803C9.66431 41.7672 6.84015 37.7597 1.87251 35.7337C0.482145 35.1866 -0.0537225 34.3289 0.00420912 32.8501C0.0911066 30.9277 0.120072 29.0052 0.0621408 27.0976C0.00420912 25.4118 0.786286 24.5245 2.23458 23.9478C7.44843 21.8627 10.6492 17.8848 12.1409 12.4872C12.5319 11.0528 12.445 9.45567 12.5174 7.93252C12.5754 6.83821 12.5319 5.7587 12.5319 4.27991ZM32.0404 11.6147C22.1051 11.6443 13.6616 19.9846 13.5168 29.7298C13.3575 41.294 22.3079 49.3386 31.9246 49.2794C43.1923 49.2055 50.5785 39.6673 50.4482 30.2178C50.3179 20.0586 42.0336 11.5851 32.0404 11.6147Z" fill="white"/>
<path d="M29.0569 32.8797C32.1273 29.7003 35.0094 26.7131 37.906 23.7112C38.4274 23.164 38.9488 22.6021 39.5136 22.0993C40.8605 20.931 42.3378 20.8867 43.395 21.9366C44.5102 23.0309 44.5392 24.7315 43.3081 26.0329C41.324 28.1623 39.2529 30.203 37.2253 32.2881C35.1542 34.4176 33.0832 36.547 30.9832 38.6617C29.5204 40.1405 28.5645 40.1701 27.1307 38.7357C24.9728 36.6062 22.8583 34.4324 20.7582 32.229C19.3534 30.7502 19.3099 29.2418 20.541 28.0144C21.6417 26.9201 23.2348 26.9645 24.5672 28.251C26.0445 29.6559 27.4059 31.1495 29.0569 32.8797Z" fill="#B3B3B3"/>
</svg>
