<svg width="136" height="115" viewBox="0 0 136 115" fill="none" xmlns="http://www.w3.org/2000/svg">
<path d="M94 0H0V94H94V0Z" fill="#F9BE00"/>
<path d="M33.5747 42.1669C35.0152 41.8623 35.7427 39.5337 35.1997 36.9659C34.6567 34.398 33.0487 32.5633 31.6082 32.868C30.1677 33.1726 29.4402 35.5011 29.9832 38.069C30.5262 40.6368 32.1342 42.4715 33.5747 42.1669Z" fill="#111820"/>
<path d="M71.7511 38.6679C73.2197 38.5644 74.2606 36.3582 74.0761 33.7402C73.8915 31.1223 72.5513 29.0839 71.0827 29.1875C69.6141 29.291 68.5732 31.4972 68.7578 34.1152C68.9423 36.7331 70.2825 38.7715 71.7511 38.6679Z" fill="#111820"/>
<path d="M50.8759 70C37.6338 70 32.5407 62.9177 32.3144 62.5908C31.7485 61.8281 31.9748 60.8474 32.7671 60.3026C33.5593 59.7578 34.578 59.9758 35.1439 60.7385C35.3702 61.0653 40.5765 68.0387 55.0636 66.4043C55.969 66.2954 56.8745 66.9491 56.9877 67.8208C57.1008 68.6925 56.4218 69.5642 55.5163 69.6731C53.8186 69.891 52.2341 70 50.8759 70Z" fill="#111820"/>
<path d="M114.578 94H94V114.578H114.578V94Z" fill="#F9BE00"/>
<path d="M135.578 73H115V93.5778H135.578V73Z" fill="#F9BE00"/>
</svg>
