<svg width="273" height="475" viewBox="0 0 273 475" fill="none" xmlns="http://www.w3.org/2000/svg">
<path d="M221.16 274.516L111.805 262.365H13.5491C9.35049 262.365 5.82757 265.547 5.44149 269.742C4.86238 276.059 5.39324 287.343 10.0744 306.872C18.6645 342.506 90.1848 463.104 96.6515 474.001H272.991L221.16 274.516Z" fill="#F9BE00"/>
<path d="M53.1217 327.992L174.832 354.995L179.754 299.253L52.8804 309.138L53.1217 327.992Z" fill="#111820"/>
<path d="M28.1232 137.379L1.00151 83.5661C-1.21842 79.1781 0.374132 73.8739 4.57269 71.4147C8.91602 68.859 14.5141 70.2092 17.1684 74.5007L56.4514 137.427H28.1232V137.379Z" fill="#F9BE00"/>
<path d="M28.2196 222.005L12.1493 181.259C10.5567 177.257 11.9563 172.724 15.4309 170.265L19.0986 167.709C23.828 163.563 31.1634 164.623 34.5416 169.928L60.9394 211.107L28.2196 222.005Z" fill="#F9BE00"/>
<path d="M5.0068 213.518L14.6104 203.923L58.7194 234.06L31.8389 252.769L4.71724 221.137C2.83512 218.919 2.93165 215.592 5.0068 213.518Z" fill="#F9BE00"/>
<path d="M3.89693 15.3833L39.657 318.685C40.2844 323.99 44.7725 327.992 50.1293 327.992H194.955C201.229 327.992 206.152 322.543 205.476 316.274L172.225 15.3351C171.646 10.0309 167.206 6.02871 161.898 5.93227L14.5622 3.61772C8.14374 3.47306 3.12478 9.06655 3.89693 15.3833Z" fill="#535A60"/>
<path d="M7.46801 11.7669L43.2281 315.069C43.8555 320.373 48.3436 324.375 53.7004 324.375H198.526C204.8 324.375 209.723 318.927 209.047 312.658L175.845 11.7669C175.266 6.46268 170.826 2.46045 165.517 2.36401L18.1333 0.00123946C11.7631 -0.0952 6.74412 5.45007 7.46801 11.7669Z" fill="#111820"/>
<path d="M22.0425 9.25943H51.0945C52.9767 9.25943 54.6657 10.4649 55.3414 12.2008L56.5478 15.5762C57.32 17.6979 59.3469 19.1445 61.6151 19.1445H131.639C134.631 19.1445 137.044 16.7335 137.044 13.7439C137.044 11.2847 139.071 9.25943 141.532 9.25943H161.319C163.876 9.25943 166 11.1882 166.338 13.6956L198.478 288.259C198.816 291.248 196.5 293.852 193.508 293.852L52.0597 294.286C49.502 294.286 47.3303 292.357 47.0408 289.802L17.0235 14.8047C16.7339 11.8633 19.0504 9.25943 22.0425 9.25943Z" fill="white"/>
<path d="M20.9324 192.253L60.6015 220.848C64.607 223.741 70.1568 222.969 73.1971 219.112C75.9962 215.592 75.8514 210.529 72.7628 207.201L35.4101 166.263C30.6325 161.007 22.3801 160.91 17.506 166.022L14.7069 168.915C10.1223 173.689 10.1705 181.211 14.7552 185.937L20.9324 192.253Z" fill="#F9BE00"/>
<path d="M8.2888 207.25L5.10369 211.059C1.48424 215.399 2.93202 222.005 8.0475 224.416L47.1858 242.981C50.5156 244.572 54.5212 243.656 56.8376 240.762C59.7814 237.098 58.961 231.745 55.052 229.093L19.7745 205.466C16.1068 203.103 11.1361 203.826 8.2888 207.25Z" fill="#F9BE00"/>
<path d="M60.1192 221.089C59.9745 221.089 59.8297 221.04 59.6849 220.944L20.0158 192.35C19.678 192.109 19.6297 191.675 19.871 191.337C20.1123 191 20.5467 190.951 20.8845 191.192L60.5536 219.787C60.8914 220.028 60.9397 220.462 60.6984 220.799C60.5536 220.992 60.3605 221.089 60.1192 221.089Z" fill="#111820"/>
<path d="M50.1776 244.524C48.9229 244.524 47.6199 244.234 46.4134 243.656L16.7822 229.527C16.4444 229.334 16.2513 228.9 16.4444 228.563C16.6374 228.225 17.0717 228.032 17.4095 228.225L47.0407 242.402C50.0811 243.848 53.7005 243.029 55.8239 240.425C56.0652 240.136 56.5478 240.087 56.8374 240.328C57.1269 240.569 57.1752 241.052 56.9339 241.341C55.2448 243.414 52.7353 244.524 50.1776 244.524Z" fill="#111820"/>
<path d="M6.79251 290.477C6.79251 290.477 1.58051 265.547 5.19996 258.797C8.8194 252.046 20.4981 252.962 20.4981 252.962L42.8904 255.566C45.6895 255.903 47.9577 257.88 48.6333 260.629C49.502 264.149 47.4268 267.717 43.9521 268.73L20.4981 275.481" fill="#F9BE00"/>
<path d="M128.889 257.543C130.964 261.834 135.5 264.342 140.229 263.86L177.534 260.099L186.076 279.869C186.076 279.869 152.343 295.588 161.319 367.098L168.992 392.269L251.322 423.756L259.43 422.84L252.239 335.611C252.239 335.611 253.253 317.432 246.834 294.238C241.14 273.6 225.745 254.794 214.887 236.712C207.455 224.271 192.398 217.376 176.617 222.776C166.048 226.393 146.021 236.278 133.956 242.402C128.406 245.199 126.138 251.949 128.889 257.543Z" fill="#F9BE00"/>
<path d="M127.586 319.023C133.049 319.023 137.479 314.597 137.479 309.138C137.479 303.679 133.049 299.253 127.586 299.253C122.122 299.253 117.692 303.679 117.692 309.138C117.692 314.597 122.122 319.023 127.586 319.023Z" fill="white"/>
<path d="M20.4981 276.107C20.1603 276.107 19.8707 275.915 19.8224 275.577C19.7259 275.191 19.919 274.806 20.305 274.661L43.759 267.91C46.8959 266.994 48.6815 263.86 47.9093 260.677C47.8128 260.291 48.0541 259.906 48.4402 259.809C48.8263 259.713 49.2123 259.954 49.3089 260.34C50.274 264.245 48.0059 268.199 44.1451 269.308L20.6911 276.059C20.5946 276.107 20.5463 276.107 20.4981 276.107Z" fill="#111820"/>
<path d="M161.319 367.821C160.981 367.821 160.643 367.532 160.595 367.195C155.914 330.065 162.96 308.174 169.668 296.312C175.941 285.269 182.987 280.737 185.111 279.531L177.051 260.87L140.278 264.535C135.259 265.017 130.433 262.317 128.213 257.832C128.02 257.495 128.165 257.061 128.551 256.868C128.889 256.675 129.323 256.82 129.516 257.205C131.446 261.208 135.742 263.57 140.133 263.136L177.438 259.375C177.727 259.327 178.065 259.52 178.161 259.809L186.703 279.579C186.848 279.917 186.703 280.351 186.366 280.544C186.269 280.592 177.968 284.594 170.874 297.179C164.311 308.8 157.41 330.403 162.043 367.05C162.091 367.436 161.802 367.821 161.415 367.87C161.367 367.821 161.319 367.821 161.319 367.821Z" fill="#111820"/>
<path d="M62.291 83.8071C62.291 57.3345 83.7664 35.9249 110.212 35.9249C136.659 35.9249 158.134 57.3827 158.134 83.8071C158.134 105.072 127.151 150.784 115.038 167.902C112.674 171.229 107.751 171.229 105.387 167.902C93.2735 150.784 62.291 105.072 62.291 83.8071Z" fill="#111820"/>
<path d="M110.261 108.496C95.059 108.496 82.7046 96.1514 82.7046 80.9622C82.7046 65.773 95.059 53.4287 110.261 53.4287C125.462 53.4287 137.817 65.773 137.817 80.9622C137.817 96.1514 125.414 108.496 110.261 108.496ZM110.261 55.4057C96.1207 55.4057 84.635 66.882 84.635 81.0104C84.635 95.1388 96.1207 106.615 110.261 106.615C124.401 106.615 135.886 95.1388 135.886 81.0104C135.886 66.882 124.352 55.4057 110.261 55.4057Z" fill="white"/>
<path d="M99.5473 89.256V82.1677H95.6865V78.4065L106.738 71.3182V77.2975H112.819V82.6981H106.738V87.279C106.738 89.5453 107.944 90.7026 109.971 90.7026C111.033 90.7026 112.191 90.3168 112.577 90.0757L112.674 96.296C111.998 96.4889 110.261 96.73 109.151 96.73C103.649 96.6818 99.5473 94.8495 99.5473 89.256Z" fill="white"/>
<path d="M112.77 65.2907H106.786V71.27H112.77V65.2907Z" fill="#F9BE00"/>
<path d="M118.802 71.27H112.818V77.2493H118.802V71.27Z" fill="#F9BE00"/>
<path d="M124.787 65.2907H118.803V71.27H124.787V65.2907Z" fill="#F9BE00"/>
<path opacity="0.47" d="M137.382 208.793C170.565 208.793 197.465 207.325 197.465 205.514C197.465 203.703 170.565 202.235 137.382 202.235C104.199 202.235 77.2993 203.703 77.2993 205.514C77.2993 207.325 104.199 208.793 137.382 208.793Z" fill="#B5B5B5"/>
<path d="M107.413 206.044C116.955 206.044 124.69 198.315 124.69 188.782C124.69 179.248 116.955 171.519 107.413 171.519C97.8713 171.519 90.1362 179.248 90.1362 188.782C90.1362 198.315 97.8713 206.044 107.413 206.044Z" fill="#313233"/>
<path d="M203.112 206.092C212.387 206.092 219.906 198.58 219.906 189.312C219.906 180.044 212.387 172.531 203.112 172.531C193.836 172.531 186.317 180.044 186.317 189.312C186.317 198.58 193.836 206.092 203.112 206.092Z" fill="#313233"/>
<path d="M145.152 205.707C154.427 205.707 161.946 198.194 161.946 188.926C161.946 179.659 154.427 172.146 145.152 172.146C135.877 172.146 128.358 179.659 128.358 188.926C128.358 198.194 135.877 205.707 145.152 205.707Z" fill="#111820"/>
<path d="M236.314 205.321C244.976 205.321 251.998 198.305 251.998 189.649C251.998 180.994 244.976 173.978 236.314 173.978C227.651 173.978 220.629 180.994 220.629 189.649C220.629 198.305 227.651 205.321 236.314 205.321Z" fill="#111820"/>
<path d="M79.4709 147.409V149.579C79.4709 149.579 80.9187 151.025 80.9187 152.472C80.9187 153.629 78.361 168.577 77.2993 174.509C76.8649 177.112 77.2028 179.813 78.5057 182.127C79.7605 184.297 81.8839 186.371 85.5999 186.371L91.777 186.756L104.18 171.471L188.44 157.969C188.44 157.969 169.474 135.354 138.106 136.849C138.106 136.849 121.312 136.126 92.887 146.348C92.9835 146.3 85.6964 149.965 79.4709 147.409Z" fill="#F9BE00"/>
<path d="M150.219 137.427L175.748 137.186C176.81 137.186 177.872 137.235 178.934 137.379C182.987 137.861 193.653 139.26 200.602 141.574C209.337 144.468 224.683 157.632 224.683 157.632C224.683 157.632 241.478 160.525 250.212 164.189C258.947 167.854 264.787 170.024 266.283 177.305V180.97C266.283 180.97 268.454 186.805 267.731 189.698C267.007 192.591 265.559 194.086 265.559 194.086H224.683C224.683 194.086 231.247 180.247 227.579 177.305C223.911 174.412 185.835 158.885 185.835 158.885L150.219 137.427Z" fill="#FCD21D"/>
<path d="M102.636 173.833C105 173.158 107.51 173.11 109.875 173.833C113.06 174.75 117.162 176.485 118.851 179.427C121.746 184.538 121.746 187.431 121.746 187.431C121.746 187.431 121.746 191.819 127.586 191.819C133.425 191.819 183.036 193.266 183.036 193.266C183.036 193.266 185.207 169.928 204.897 174.316C204.897 174.316 212.908 177.209 215.128 183.815C217.3 190.373 215.128 194.037 223.863 194.037C232.598 194.037 232.598 192.591 233.37 190.373C234.094 188.203 233.37 174.316 225.359 169.976C217.348 165.588 189.599 158.307 189.599 158.307C189.599 158.307 183.904 153.002 179.464 149.82C175.025 146.637 158.568 131.786 125.945 137.765C93.3216 143.744 91.1499 149.579 85.3106 149.579C80.4364 149.579 88.93 169.783 94.8176 175.087C95.4933 175.762 99.6436 174.701 102.636 173.833Z" fill="#F9BE00"/>
<path d="M169.185 140.128L189.888 139.887C193.17 139.838 196.452 140.369 199.588 141.526C204.463 143.31 210.64 146.589 217.3 152.52L223.139 157.632H191.77C191.819 157.583 184.532 148.132 169.185 140.128Z" fill="#111820"/>
<path d="M236.314 174.364C236.314 174.364 236.314 167.083 213.68 164.141C213.68 164.141 213.777 165.057 214.259 166.311C218.892 167.854 222.994 169.397 225.359 170.699C227.145 171.664 228.544 173.062 229.654 174.75C237.472 175.521 236.314 174.364 236.314 174.364Z" fill="white"/>
<path d="M225.359 170.699C222.994 169.397 218.844 167.854 214.259 166.311C215.273 169.011 218.168 173.351 226.083 174.364C227.434 174.557 228.641 174.653 229.654 174.75C228.544 173.11 227.145 171.664 225.359 170.699Z" fill="#F4DD7A"/>
<path d="M103.649 206.092C112.791 206.092 120.202 198.687 120.202 189.553C120.202 180.419 112.791 173.014 103.649 173.014C94.5072 173.014 87.0962 180.419 87.0962 189.553C87.0962 198.687 94.5072 206.092 103.649 206.092Z" fill="#111820"/>
<path d="M197.272 206.092C206.147 206.092 213.342 198.903 213.342 190.035C213.342 181.167 206.147 173.978 197.272 173.978C188.397 173.978 181.202 181.167 181.202 190.035C181.202 198.903 188.397 206.092 197.272 206.092Z" fill="#111820"/>
<path d="M82.3667 160.139H92.2116C92.2116 158.596 91.8738 157.342 91.3912 156.426C90.5225 154.69 88.6887 153.581 86.71 153.533L85.6966 153.485C85.5518 153.919 85.4553 154.401 85.2623 154.835C84.5866 156.812 83.5732 158.596 82.3667 160.139Z" fill="white"/>
<path d="M79.7607 160.139H82.3667C83.5732 158.596 84.5867 156.812 85.2623 154.835C85.4071 154.401 85.5518 153.967 85.6966 153.485L80.8224 153.34L79.7607 160.139Z" fill="#F4DD7A"/>
<path d="M96.5067 189.746C96.5067 184.008 100.609 179.186 106.11 178.125C105.386 177.98 104.614 177.884 103.842 177.884C97.3271 177.884 92.0186 183.188 92.0186 189.698C92.0186 196.207 97.3271 201.512 103.842 201.512C104.614 201.512 105.386 201.415 106.11 201.27C100.657 200.306 96.5067 195.484 96.5067 189.746Z" fill="#F9BE00"/>
<path d="M115.666 189.746C115.666 184.008 111.564 179.186 106.062 178.125C100.609 179.186 96.4585 183.96 96.4585 189.746C96.4585 195.532 100.561 200.306 106.062 201.367C111.564 200.306 115.666 195.484 115.666 189.746Z" fill="white"/>
<path d="M191.095 190.228C191.095 184.635 195.1 180.006 200.409 178.945C199.685 178.8 198.961 178.752 198.237 178.752C191.915 178.752 186.751 183.911 186.751 190.228C186.751 196.545 191.915 201.704 198.237 201.704C199.009 201.704 199.733 201.608 200.409 201.512C195.1 200.451 191.095 195.822 191.095 190.228Z" fill="#F9BE00"/>
<path d="M209.674 190.228C209.674 184.635 205.669 180.006 200.36 178.945C195.052 179.957 191.046 184.635 191.046 190.228C191.046 195.822 195.052 200.451 200.36 201.512C205.669 200.451 209.674 195.822 209.674 190.228Z" fill="white"/>
<path d="M87.4822 179.089C87.4339 179.089 87.4339 179.089 87.3857 179.089L77.0582 176.919C76.8652 176.871 76.7204 176.678 76.7686 176.486C76.8169 176.293 77.0099 176.148 77.203 176.196L87.2892 178.318C88.0131 176.919 91.5842 170.699 99.547 170.699C99.7401 170.699 99.9331 170.844 99.9331 171.085C99.9331 171.278 99.7883 171.471 99.547 171.471C91.1499 171.471 87.8683 178.848 87.8683 178.896C87.7717 179.041 87.627 179.089 87.4822 179.089Z" fill="#111820"/>
<path d="M177.244 189.312C177.244 189.312 177.196 189.312 177.244 189.312L128.31 185.647C128.213 185.647 128.116 185.599 128.068 185.503C128.02 185.406 127.972 185.31 127.972 185.213C128.647 177.691 123.194 168.915 117.548 164.768C116.583 164.045 115.424 163.273 114.266 162.55C111.853 160.959 109.585 159.512 109.054 158.451C108.234 156.812 111.419 153.726 112.046 153.099C112.191 152.954 112.432 152.954 112.577 153.099C112.722 153.244 112.722 153.485 112.577 153.629C111.129 154.979 109.295 157.294 109.73 158.114C110.164 158.982 112.48 160.477 114.7 161.923C115.859 162.646 117.017 163.418 118.03 164.141C123.677 168.288 129.323 176.919 128.792 184.876L176.955 188.444C177.196 186.563 178.692 177.787 186.558 173.207C186.752 173.11 186.945 173.158 187.041 173.351C187.138 173.544 187.089 173.737 186.896 173.833C178.403 178.8 177.582 188.733 177.582 188.83C177.582 188.926 177.534 189.023 177.437 189.071C177.389 189.264 177.293 189.312 177.244 189.312Z" fill="#111820"/>
<path d="M152.439 187.48C152.391 187.48 152.391 187.48 152.343 187.48C152.15 187.431 152.005 187.239 152.053 187.046C153.453 180.247 147.372 157.583 147.324 157.342C147.276 157.149 147.372 156.956 147.565 156.908C147.758 156.86 147.951 156.956 147.999 157.149C148.241 158.066 154.177 180.198 152.729 187.19C152.729 187.335 152.584 187.48 152.439 187.48Z" fill="#111820"/>
<path d="M268.068 188.926H230.86C223.332 188.926 222.077 182.561 222.077 182.513C222.077 182.417 222.077 182.32 222.174 182.224C222.222 182.127 222.367 182.079 222.463 182.079L238.582 182.031C238.63 182.031 238.727 182.031 238.775 182.079L243.07 184.924H257.355L261.65 182.079C261.698 182.031 261.795 182.031 261.843 182.031H266.717C266.91 182.031 267.103 182.175 267.103 182.417C267.103 182.609 266.958 182.802 266.717 182.802H261.939L257.644 185.647C257.596 185.695 257.499 185.695 257.451 185.695H242.877C242.829 185.695 242.732 185.695 242.684 185.647L238.389 182.802L222.849 182.851C223.235 184.201 224.973 188.251 230.812 188.251H268.02C268.213 188.251 268.406 188.396 268.406 188.637C268.406 188.782 268.261 188.926 268.068 188.926Z" fill="#111820"/>
<path d="M125.414 160.139H119.575C119.382 160.139 119.188 159.994 119.188 159.753C119.188 159.512 119.333 159.367 119.575 159.367H125.414C125.607 159.367 125.8 159.512 125.8 159.753C125.8 159.994 125.655 160.139 125.414 160.139Z" fill="#F9BE00"/>
<path d="M159.34 163.418H153.501C153.308 163.418 153.115 163.273 153.115 163.032C153.115 162.839 153.26 162.646 153.501 162.646H159.34C159.533 162.646 159.726 162.791 159.726 163.032C159.726 163.273 159.581 163.418 159.34 163.418Z" fill="#F9BE00"/>
<path d="M258.562 174.75L265.559 175.039C265.559 175.039 264.932 173.399 264.015 172.194C263.098 170.94 261.988 170.169 262.036 170.217C262.229 170.362 258.562 171.808 258.562 174.75Z" fill="white"/>
<path d="M163.49 175.714V172.049H161.512V170.12L167.158 166.456V169.542H170.295V172.29H167.158V174.653C167.158 175.81 167.785 176.389 168.799 176.389C169.33 176.389 169.957 176.196 170.15 176.052L170.198 179.234C169.861 179.33 168.992 179.475 168.413 179.475C165.566 179.523 163.49 178.607 163.49 175.714Z" fill="#111820"/>
<path d="M170.247 163.418H167.158V166.504H170.247V163.418Z" fill="#111820"/>
<path d="M173.384 166.504H170.295V169.59H173.384V166.504Z" fill="#111820"/>
<path d="M176.424 163.418H173.335V166.504H176.424V163.418Z" fill="#111820"/>
<path d="M140.76 146.975C133.666 146.975 130.867 142.973 130.047 141.526C117.596 143.262 107.172 147.409 107.172 147.409C108.62 154.69 123.966 156.137 123.966 156.137L150.219 157.583H156.203C156.059 157.053 155.865 156.185 155.624 154.787C154.852 150.109 149.399 146.975 140.76 146.975Z" fill="#111820"/>
<path d="M137.093 140.851C134.728 140.948 132.363 141.189 130.047 141.526C130.819 142.973 133.666 146.975 140.76 146.975C149.399 146.975 154.9 150.109 155.673 154.835C155.914 156.233 156.107 157.101 156.252 157.632H180.14C171.405 144.468 152.439 140.128 137.093 140.851Z" fill="white"/>
<path d="M176.134 160.862H169.571C169.571 160.862 166.675 160.139 168.123 155.751C169.571 151.363 177.63 155.028 179.802 157.921" fill="#F9BE00"/>
<path d="M176.134 161.248H169.474C169.426 161.248 168.365 160.959 167.785 159.85C167.206 158.789 167.206 157.39 167.785 155.703C168.171 154.497 169.137 153.726 170.44 153.485C173.48 153.002 178.354 155.462 180.092 157.776L179.512 158.21C177.92 156.089 173.287 153.774 170.584 154.208C169.523 154.401 168.799 154.979 168.461 155.944C167.978 157.439 167.93 158.644 168.413 159.512C168.799 160.235 169.474 160.525 169.619 160.573H176.134V161.248Z" fill="#111820"/>
</svg>
