<svg width="95" height="95" viewBox="0 0 95 95" fill="none" xmlns="http://www.w3.org/2000/svg">
<path d="M0.855199 51.5126C0.855199 41.3719 0.855199 31.2149 0.855199 21.0742C0.855199 13.708 5.90122 8.67822 13.2674 8.67822C25.274 8.67822 37.2806 8.67821 49.2872 8.69443C50.1958 8.69443 50.8611 8.45104 51.5425 7.81826C65.0905 -4.95092 87.2865 0.841467 92.8679 18.608C95.1719 25.9418 94.0199 32.9023 90.2719 39.4897C89.2335 41.3069 88.0004 43.0268 86.9458 44.8278C86.5888 45.4444 86.313 46.2232 86.2968 46.9371C86.2643 58.5867 86.2806 70.2202 86.2643 81.8698C86.2643 86.8347 84.1226 90.6476 79.6282 92.8055C78.0544 93.5681 76.1561 94.0062 74.3875 94.0224C59.7524 94.1198 45.1174 94.0711 30.4823 94.0873C24.6575 94.0873 18.8326 94.1036 13.0078 94.0873C5.94989 94.0711 0.855204 89.0089 0.822754 81.9509C0.838979 71.8102 0.855199 61.6533 0.855199 51.5126ZM8.62704 80.6204C9.08134 80.2148 9.35717 79.9877 9.60055 79.7443C21.9965 67.397 34.3926 55.0334 46.7886 42.6699C48.2813 41.1772 48.2813 41.1772 47.2591 39.3275C44.371 34.1355 42.8945 28.6351 43.8518 22.6805C44.1763 20.5875 44.7929 18.5431 45.2796 16.4176C44.9876 16.4176 44.6144 16.4176 44.2574 16.4176C33.9545 16.4176 23.6353 16.4176 13.3323 16.4176C9.98995 16.4176 8.62704 17.7805 8.62704 21.1229C8.62704 32.2047 8.62704 43.2702 8.61081 54.352C8.62704 63.0324 8.62704 71.6804 8.62704 80.6204ZM68.66 61.199C71.1263 56.5586 73.4302 51.8858 76.0263 47.3914C78.1517 43.7245 80.7153 40.3172 82.9382 36.7152C85.4206 32.7076 86.7673 28.3917 86.0696 23.5729C84.7229 14.4219 76.4806 7.72092 67.0213 8.79178C57.0753 9.92754 50.2932 18.5593 51.4776 28.1159C51.9806 32.1235 53.7816 35.5795 55.9882 38.8407C59.6227 44.195 63.2733 49.5169 66.0478 55.3904C66.9726 57.3536 67.8326 59.3493 68.66 61.199ZM41.6939 59.5115C32.77 68.4192 23.7489 77.3916 14.8737 86.2506C32.5916 86.2506 50.5528 86.2506 68.4167 86.2506C59.4279 77.2618 50.423 68.2569 41.6939 59.5115ZM63.7114 69.9605C61.7319 61.6695 57.6269 54.5629 52.7107 47.8944C50.8124 49.7765 48.9627 51.6261 47.178 53.4109C52.6458 58.8788 58.1462 64.3791 63.7114 69.9605ZM78.1517 84.3847C78.2653 83.5247 78.4925 82.6648 78.4925 81.8211C78.5249 75.7692 78.5087 69.7009 78.5087 63.649C78.5087 61.9291 78.5087 60.2255 78.5087 58.5056C77.8597 59.3006 77.3567 60.1119 77.0322 61.0043C75.864 64.2655 74.712 67.5268 73.6574 70.8205C72.911 73.1731 71.4508 74.5036 68.9683 74.6821C68.7898 74.6983 68.6276 74.7145 68.4005 74.7469C71.6779 77.9595 74.8418 81.091 78.1517 84.3847Z" fill="#111820"/>
<path d="M74.6311 26.1202C74.6473 29.3166 71.9864 31.9775 68.7738 31.9775C65.6423 31.9775 63.0139 29.3328 62.9976 26.1851C62.9814 23.0374 65.5937 20.3765 68.7251 20.3278C71.9215 20.2791 74.6148 22.9076 74.6311 26.1202Z" fill="#111820"/>
</svg>
