<svg width="323" height="76" viewBox="0 0 323 76" fill="none" xmlns="http://www.w3.org/2000/svg">
<path d="M10.1235 55.8397V37.3038H0V27.5572L28.7751 8.99236V23.2931H44.6709V37.3908H28.7751V50.6473C28.7751 56.5069 31.9078 59.5527 37.1871 59.5527C39.9428 59.5527 42.9595 58.5084 44.0038 57.9282L44.2068 74.1145C42.4084 74.5786 37.9703 75.2458 35.0406 75.2458C20.7111 75.2458 10.1235 70.5175 10.1235 55.8397Z" fill="white"/>
<path d="M51.4586 0.116043H69.9942V73.9115H51.4586V0.116043Z" fill="white"/>
<path d="M75.5055 0.116043H94.0411V73.9115H75.5055V0.116043Z" fill="white"/>
<path d="M145.587 23.2931H164.615L174.449 45.629H175.203L184.862 23.2931H203.601L176.624 76H173.114L145.587 23.2931Z" fill="white"/>
<path d="M126.732 62.2794C130.938 62.2794 134.506 60.655 136.565 58.3924L148.835 65.4412C143.817 72.4031 136.246 75.971 126.529 75.971C109.038 75.971 98.1891 64.1939 98.1891 48.9649C98.1891 33.7359 109.241 21.9588 125.398 21.9588C140.336 21.9588 151.388 33.5328 151.388 48.9649C151.388 51.1115 151.185 53.142 150.779 55.1145H114.433C116.377 60.4519 121.105 62.2794 126.732 62.2794ZM136.13 43.6565C134.506 37.7389 129.894 35.5634 125.282 35.5634C119.451 35.5634 115.564 38.4351 114.143 43.6565H136.13Z" fill="white"/>
<path d="M278.352 0H256.394V21.9588H278.352V0Z" fill="#F9BE00"/>
<path d="M322.24 0H300.282V21.9588H322.24V0Z" fill="#F9BE00"/>
<path d="M300.311 21.9588H278.352V43.9176H300.311V21.9588Z" fill="#F9BE00"/>
<path d="M227.532 21.9588C209.808 22.0168 198.583 33.8229 198.583 48.6458C198.583 63.4977 209.75 75.2458 227.532 75.2458C244.385 75.2458 255.176 64.571 256.278 50.7344L256.394 47.5145V21.9588H227.532ZM227.532 61.0321C220.628 61.0321 215.523 55.5496 215.523 48.5298C215.523 41.626 220.541 36.2305 227.532 36.2305C234.436 36.2305 239.541 41.626 239.541 48.6168C239.541 55.5496 234.523 61.0321 227.532 61.0321Z" fill="white"/>
</svg>
