<svg width="302" height="72" viewBox="0 0 302 72" fill="none" xmlns="http://www.w3.org/2000/svg">
<path d="M9.50308 52.3035V34.9421H0V25.8045L26.9376 8.44312V21.8205H41.8501V35.0152H26.9376V47.4423C26.9376 52.9248 29.8616 55.7758 34.8324 55.7758C37.391 55.7758 40.2419 54.7889 41.2287 54.2772L41.4115 69.4456C39.7302 69.8842 35.5634 70.5055 32.8222 70.5055C19.4082 70.5055 9.50308 66.0464 9.50308 52.3035Z" fill="#111820"/>
<path d="M48.2098 0.10965H65.5712V69.2628H48.2098V0.10965Z" fill="#111820"/>
<path d="M70.7614 0.10965H88.1228V69.2628H70.7614V0.10965Z" fill="#111820"/>
<path d="M136.406 21.8206H154.242L163.453 42.7273H164.147L173.175 21.8206H190.72L165.463 71.2H162.174L136.406 21.8206Z" fill="#111820"/>
<path d="M118.715 58.3343C122.663 58.3343 125.989 56.7992 127.926 54.6792L139.439 61.2948C134.761 67.8008 127.634 71.1634 118.533 71.1634C102.122 71.1634 91.9606 60.1252 91.9606 45.8706C91.9606 31.616 102.304 20.5413 117.473 20.5413C131.471 20.5413 141.815 31.3602 141.815 45.8706C141.815 47.8809 141.632 49.7815 141.23 51.609H107.202C109.03 56.6164 113.452 58.3343 118.715 58.3343ZM127.561 40.8998C126.025 35.3441 121.713 33.3339 117.4 33.3339C111.954 33.3339 108.299 36.002 106.946 40.8998H127.561Z" fill="#111820"/>
<path d="M260.786 0H240.209V20.5778H260.786V0Z" fill="#F9BE00"/>
<path d="M301.905 0H281.328V20.5778H301.905V0Z" fill="#F9BE00"/>
<path d="M281.364 20.5778H260.786V41.1556H281.364V20.5778Z" fill="#F9BE00"/>
<path d="M213.161 20.5778C196.531 20.6144 186.041 31.6891 186.041 45.5782C186.041 59.5039 196.494 70.5055 213.161 70.5055C228.951 70.5055 239.076 60.5273 240.099 47.5519L240.209 44.5183V20.5778H213.161ZM213.161 57.2012C206.692 57.2012 201.904 52.0476 201.904 45.5051C201.904 39.0357 206.619 33.9918 213.161 33.9918C219.631 33.9918 224.419 39.0357 224.419 45.6148C224.419 52.0476 219.74 57.2012 213.161 57.2012Z" fill="#111820"/>
</svg>
