<svg width="82" height="71" viewBox="0 0 82 71" fill="none" xmlns="http://www.w3.org/2000/svg">
<path d="M31.903 22.3945C31.8953 20.3741 30.5721 18.3537 27.9103 16.8133C22.5944 13.7247 13.9936 13.7247 8.68543 16.8056C6.03134 18.346 4.70814 20.3664 4.70814 22.3945V26.9075C4.70814 26.9075 4.70814 26.9075 4.70814 26.9152C4.71583 28.9356 6.03903 30.956 8.69313 32.4965C14.009 35.5851 22.6175 35.5851 27.918 32.5042C30.5721 30.9638 31.8953 28.9434 31.8953 26.9152V22.3945H31.903Z" fill="#999999"/>
<path d="M18.3248 35.2135C14.7706 35.2135 11.2087 34.424 8.5008 32.8525C5.80824 31.2811 4.31579 29.1756 4.31579 26.923V22.4023C4.3081 20.1419 5.79285 18.0286 8.49311 16.4649C13.9013 13.3221 22.7098 13.3299 28.118 16.4727C30.8106 18.0364 32.303 20.1419 32.3107 22.4023V26.923C32.3107 29.1833 30.826 31.2966 28.1334 32.8603C25.4332 34.424 21.879 35.2135 18.3248 35.2135ZM18.294 14.9013C14.886 14.9013 11.4857 15.6521 8.89314 17.1616C6.45445 18.5782 5.11587 20.4361 5.11587 22.3945V26.9075C5.12356 28.866 6.46215 30.7238 8.90084 32.1404C14.0936 35.1593 22.5329 35.1593 27.7257 32.1481C30.1644 30.7315 31.503 28.8737 31.503 26.9152V22.3945C31.4953 20.4361 30.149 18.5782 27.718 17.1694C25.1177 15.6521 21.702 14.9013 18.294 14.9013Z" fill="#999999"/>
<path d="M31.903 26.9152V22.3945C31.8953 20.3741 30.5721 18.3537 27.9103 16.8133C26.8795 16.2172 25.7178 15.7295 24.4869 15.3657V33.9517C25.7255 33.5802 26.8871 33.108 27.9257 32.5042C30.5798 30.956 31.9107 28.9356 31.903 26.9152Z" fill="#999999"/>
<path d="M24.4869 34.3621C24.4023 34.3621 24.3177 34.3311 24.2484 34.2846C24.1484 34.2072 24.0869 34.0834 24.0869 33.9595V15.3658C24.0869 15.2342 24.1484 15.1181 24.2484 15.0406C24.3484 14.9632 24.4792 14.94 24.6023 14.9787C25.9024 15.3658 27.0795 15.8612 28.118 16.465C30.8106 18.0286 32.303 20.1342 32.3107 22.3945V26.9153C32.3107 29.1756 30.826 31.2889 28.1334 32.8526C27.1102 33.4486 25.9255 33.944 24.61 34.3388C24.5639 34.3543 24.5254 34.3621 24.4869 34.3621ZM24.8947 15.9154V33.3944C25.9486 33.0461 26.8948 32.6281 27.7257 32.1481C30.1644 30.7315 31.503 28.8737 31.503 26.9153V22.3945C31.4953 20.4361 30.149 18.5783 27.718 17.1694C26.8795 16.674 25.9255 16.256 24.8947 15.9154Z" fill="#999999"/>
<path d="M27.9257 27.9758C33.2339 24.8949 33.2262 19.8942 27.9103 16.8056C22.5944 13.717 13.9936 13.717 8.68543 16.7979C3.37724 19.8788 3.38493 24.8794 8.69312 27.9681C14.0167 31.0644 22.6252 31.0644 27.9257 27.9758Z" fill="#666666"/>
<path d="M18.3248 30.6851C14.7706 30.6851 11.2087 29.8955 8.5008 28.3241C5.80055 26.7527 4.3081 24.6472 4.3081 22.3868C4.3081 20.1265 5.79285 18.0209 8.48541 16.4573C13.8936 13.3144 22.7021 13.3222 28.1103 16.465C30.8106 18.0364 32.303 20.1419 32.303 22.41C32.303 24.6704 30.8183 26.7759 28.1257 28.3396C25.4255 29.9033 21.879 30.6851 18.3248 30.6851ZM18.294 14.9013C14.886 14.9013 11.4857 15.6522 8.89314 17.1617C6.46215 18.5783 5.11587 20.4361 5.11587 22.3868C5.11587 24.3453 6.46215 26.2031 8.90084 27.6197C14.0936 30.6387 22.5329 30.6387 27.7257 27.6274C30.1567 26.2109 31.4953 24.3608 31.4953 22.4023C31.4953 20.4438 30.149 18.586 27.7103 17.1617C25.1177 15.6522 21.702 14.9013 18.294 14.9013Z" fill="#666666"/>
<path d="M18.8402 35.2135C18.6171 35.2135 18.4325 35.0278 18.4325 34.8033V30.2826C18.4325 30.0581 18.6171 29.8723 18.8402 29.8723C19.0633 29.8723 19.248 30.0581 19.248 30.2826V34.8033C19.248 35.0278 19.0633 35.2135 18.8402 35.2135ZM16.0169 35.1052C15.7938 35.1052 15.6092 34.9194 15.6092 34.6949V30.1742C15.6092 29.9497 15.7938 29.7639 16.0169 29.7639C16.24 29.7639 16.4246 29.9497 16.4246 30.1742V34.6949C16.4169 34.9194 16.24 35.1052 16.0169 35.1052ZM21.6636 34.9736C21.4405 34.9736 21.2558 34.7878 21.2558 34.5633V30.0426C21.2558 29.8181 21.4405 29.6323 21.6636 29.6323C21.8867 29.6323 22.0713 29.8181 22.0713 30.0426V34.5633C22.0713 34.7955 21.8867 34.9736 21.6636 34.9736ZM13.1935 34.633C12.9704 34.633 12.7858 34.4472 12.7858 34.2227V29.702C12.7858 29.4775 12.9704 29.2917 13.1935 29.2917C13.4166 29.2917 13.6013 29.4775 13.6013 29.702V34.2227C13.5936 34.4549 13.4166 34.633 13.1935 34.633ZM10.3625 33.7273C10.1394 33.7273 9.95478 33.5415 9.95478 33.317V28.7963C9.95478 28.5718 10.1394 28.386 10.3625 28.386C10.5856 28.386 10.7702 28.5718 10.7702 28.7963V33.317C10.7702 33.5415 10.5856 33.7273 10.3625 33.7273ZM7.53917 32.1326C7.31607 32.1326 7.13144 31.9469 7.13144 31.7224V27.2017C7.13144 26.9772 7.31607 26.7914 7.53917 26.7914C7.76227 26.7914 7.9469 26.9772 7.9469 27.2017V31.7224C7.9469 31.9469 7.76227 32.1326 7.53917 32.1326Z" fill="#666666"/>
<path d="M27.5949 14.8006C27.5872 12.7803 26.264 10.7599 23.6022 9.21942C18.294 6.13079 9.68552 6.13079 4.38503 9.21168C1.73093 10.7521 0.40773 12.7725 0.40773 14.8006V19.3136C0.40773 19.3136 0.40773 19.3136 0.40773 19.3214C0.415423 21.3418 1.73862 23.3621 4.39272 24.9026C9.7086 27.9912 18.3171 27.9912 23.6176 24.9103C26.2717 23.3699 27.5949 21.3495 27.5949 19.3214V14.8006Z" fill="#808080"/>
<path d="M14.0167 27.6197C10.4625 27.6197 6.90065 26.8301 4.1927 25.2587C1.49245 23.6873 0.00769303 21.5818 0 19.3214V14.8007C0 12.5403 1.47706 10.4271 4.17731 8.86338C9.58552 5.72056 18.3863 5.7283 23.8022 8.87113C26.4948 10.4348 27.9872 12.5403 27.9949 14.8007V19.3214C27.9949 21.5818 26.5102 23.695 23.8176 25.2587C21.1174 26.8301 17.5709 27.6197 14.0167 27.6197ZM13.9782 7.30745C10.5702 7.30745 7.1699 8.05833 4.57735 9.56781C2.13866 10.9844 0.800075 12.8422 0.800075 14.8007V19.3137C0.807768 21.2721 2.14635 23.13 4.58505 24.5466C9.77784 27.5655 18.2171 27.5655 23.4099 24.5543C25.8486 23.1377 27.1872 21.2799 27.1872 19.3214V14.8007C27.1795 12.8422 25.8332 10.9844 23.4022 9.57555C20.802 8.06607 17.3939 7.30745 13.9782 7.30745Z" fill="#808080"/>
<path d="M27.5949 19.3214V14.8006C27.5872 12.7802 26.264 10.7599 23.6022 9.21941C22.5714 8.62336 21.4097 8.13568 20.1788 7.77185V26.3579C21.4174 25.9863 22.579 25.5141 23.6176 24.9103C26.2717 23.3699 27.5949 21.3417 27.5949 19.3214Z" fill="#808080"/>
<path d="M20.1788 26.7682C20.0942 26.7682 20.0096 26.7372 19.9403 26.6908C19.8403 26.6134 19.7788 26.4895 19.7788 26.3657V7.77189C19.7788 7.64029 19.8403 7.52418 19.9403 7.44677C20.0403 7.36936 20.1711 7.34614 20.2942 7.38484C21.5943 7.77189 22.7714 8.26731 23.8099 8.8711C26.5025 10.4348 27.9949 12.5403 28.0026 14.8007V19.3214C28.0026 21.5817 26.5179 23.695 23.8253 25.2587C22.8021 25.8547 21.6174 26.3502 20.3019 26.745C20.2557 26.7604 20.2173 26.7682 20.1788 26.7682ZM20.5865 8.32924V25.8083C21.6405 25.46 22.5867 25.0419 23.4176 24.562C25.8563 23.1454 27.1949 21.2876 27.1949 19.3291V14.8084C27.1872 12.85 25.8409 10.9921 23.4099 9.58327C22.5637 9.08785 21.6174 8.66984 20.5865 8.32924Z" fill="#808080"/>
<path d="M23.6176 20.3896C28.9258 17.3087 28.9181 12.3081 23.6022 9.21942C18.294 6.13079 9.68553 6.13079 4.38503 9.21168C-0.923162 12.2926 -0.91547 17.2932 4.39272 20.3819C9.70861 23.4705 18.3171 23.4705 23.6176 20.3896Z" fill="#666666"/>
<path d="M14.0167 23.099C10.4625 23.099 6.90065 22.3094 4.1927 20.738C1.48475 19.1666 0 17.0533 0 14.793C0 12.5326 1.48475 10.4271 4.17731 8.86338C9.58552 5.72056 18.3863 5.7283 23.8022 8.87112C26.5025 10.4425 27.9949 12.5481 27.9949 14.8162C27.9949 17.0765 26.5102 19.1821 23.8176 20.7457C21.1174 22.3094 17.5709 23.099 14.0167 23.099ZM13.9782 7.30745C10.5702 7.30745 7.1699 8.05833 4.57735 9.56781C2.14636 10.9844 0.800075 12.8422 0.800075 14.793C0.800075 16.7514 2.14635 18.6092 4.58505 20.0258C9.77784 23.0448 18.2171 23.0448 23.4099 20.0336C25.8409 18.617 27.1795 16.7669 27.1795 14.8084C27.1795 12.85 25.8332 10.9921 23.3945 9.56781C20.802 8.06607 17.3939 7.30745 13.9782 7.30745Z" fill="#666666"/>
<path d="M14.5321 27.6197C14.309 27.6197 14.1244 27.4339 14.1244 27.2094V22.6887C14.1244 22.4642 14.309 22.2784 14.5321 22.2784C14.7552 22.2784 14.9399 22.4642 14.9399 22.6887V27.2094C14.9322 27.4416 14.7552 27.6197 14.5321 27.6197ZM11.7011 27.5113C11.478 27.5113 11.2934 27.3255 11.2934 27.101V22.5803C11.2934 22.3558 11.478 22.17 11.7011 22.17C11.9242 22.17 12.1088 22.3558 12.1088 22.5803V27.101C12.1088 27.3333 11.9242 27.5113 11.7011 27.5113ZM17.3555 27.3874C17.1324 27.3874 16.9477 27.2017 16.9477 26.9772V22.4565C16.9477 22.232 17.1324 22.0462 17.3555 22.0462C17.5786 22.0462 17.7632 22.232 17.7632 22.4565V26.9772C17.7555 27.2017 17.5786 27.3874 17.3555 27.3874ZM8.87776 27.0468C8.65466 27.0468 8.47003 26.8611 8.47003 26.6366V22.1159C8.47003 21.8914 8.65466 21.7056 8.87776 21.7056C9.10085 21.7056 9.28549 21.8914 9.28549 22.1159V26.6366C9.28549 26.8611 9.10085 27.0468 8.87776 27.0468ZM6.05441 26.1334C5.83132 26.1334 5.64668 25.9476 5.64668 25.7231V21.2024C5.64668 20.9779 5.83132 20.7921 6.05441 20.7921C6.27751 20.7921 6.46214 20.9779 6.46214 21.2024V25.7231C6.46214 25.9554 6.27751 26.1334 6.05441 26.1334ZM3.23107 24.5388C3.00797 24.5388 2.82334 24.353 2.82334 24.1285V19.6078C2.82334 19.3833 3.00797 19.1975 3.23107 19.1975C3.45417 19.1975 3.6388 19.3833 3.6388 19.6078V24.1285C3.63111 24.3607 3.45417 24.5388 3.23107 24.5388Z" fill="#666666"/>
<path d="M31.903 8.29056C31.8953 6.27017 30.5721 4.24978 27.9103 2.70933C22.6021 -0.371569 14.0013 -0.37931 8.69312 2.70933C6.03903 4.24978 4.71583 6.27017 4.71583 8.2983V12.8113C4.71583 12.8113 4.71583 12.8113 4.71583 12.819C4.72352 14.8394 6.04672 16.8598 8.70081 18.4002C14.0167 21.4889 22.6252 21.4889 27.9257 18.408C30.5798 16.8675 31.903 14.8471 31.903 12.819V8.29056Z" fill="#B3B3B3"/>
<path d="M18.3248 21.1096C14.7706 21.1096 11.2087 20.32 8.5008 18.7486C5.80824 17.1772 4.31579 15.0716 4.31579 12.819V8.2983C4.3081 6.0302 5.79285 3.92466 8.49311 2.35325C13.9013 -0.789573 22.7098 -0.781832 28.118 2.36099C30.8106 3.92466 32.303 6.0302 32.3107 8.29056V12.8113C32.3107 15.0716 30.826 17.1849 28.1334 18.7486C25.4332 20.3277 21.879 21.1096 18.3248 21.1096ZM18.294 0.805062C14.886 0.805062 11.4857 1.55593 8.89314 3.06542C6.45445 4.48201 5.11587 6.33984 5.11587 8.2983V12.8113C5.12356 14.7697 6.46215 16.6276 8.90084 18.0442C14.0936 21.0631 22.5329 21.0631 27.7257 18.0519C30.1644 16.6353 31.503 14.7775 31.503 12.819V8.2983C31.4953 6.33984 30.149 4.48201 27.718 3.07316C25.1177 1.55593 21.702 0.805062 18.294 0.805062Z" fill="#B3B3B3"/>
<path d="M31.903 12.819V8.29831C31.8953 6.27792 30.5721 4.25754 27.9103 2.71709C26.8795 2.12103 25.7178 1.63336 24.4869 1.26953V19.8555C25.7255 19.484 26.8871 19.0118 27.9257 18.408C30.5798 16.8598 31.9107 14.8394 31.903 12.819Z" fill="#808080"/>
<path d="M24.4869 20.2581C24.4023 20.2581 24.3177 20.2272 24.2484 20.1807C24.1484 20.1033 24.0869 19.9794 24.0869 19.8556V1.26957C24.0869 1.13797 24.1484 1.02186 24.2484 0.94445C24.3484 0.86704 24.4792 0.843817 24.6023 0.882522C25.9024 1.26957 27.0795 1.76499 28.118 2.36878C30.8106 3.93246 32.303 6.03799 32.3107 8.29835V12.8191C32.3107 15.0794 30.826 17.1927 28.1334 18.7564C27.1102 19.3524 25.9255 19.8479 24.61 20.2426C24.5639 20.2581 24.5254 20.2581 24.4869 20.2581ZM24.8947 1.81918V19.2982C25.9486 18.9499 26.8948 18.5319 27.7257 18.052C30.1644 16.6354 31.503 14.7775 31.503 12.8191V8.29835C31.4953 6.33989 30.149 4.48206 27.718 3.07321C26.8795 2.57779 25.9255 2.15978 24.8947 1.81918Z" fill="#808080"/>
<path d="M27.9257 13.8795C33.2339 10.7986 33.2262 5.79797 27.9103 2.70933C22.6021 -0.371569 14.0013 -0.37931 8.69312 2.70933C3.38494 5.79023 3.39263 10.7909 8.70082 13.8795C14.0167 16.9604 22.6252 16.9682 27.9257 13.8795Z" fill="white"/>
<path d="M18.3248 16.5888C14.7706 16.5888 11.2087 15.7992 8.5008 14.2278C5.80055 12.6564 4.3081 10.5509 4.3081 8.29051C4.3081 6.03015 5.79285 3.92461 8.48541 2.36094C13.8936 -0.781883 22.7021 -0.774142 28.1103 2.36868C30.8183 3.93235 32.3107 6.03789 32.3107 8.30599C32.3107 10.5663 30.826 12.6719 28.1334 14.2356C25.4255 15.807 21.879 16.5888 18.3248 16.5888ZM18.294 0.805011C14.886 0.805011 11.4857 1.55588 8.89314 3.06537C6.46215 4.47422 5.11587 6.33205 5.11587 8.29051C5.11587 10.249 6.46215 12.1068 8.90084 13.5234C14.0936 16.5424 22.5329 16.5424 27.7257 13.5311C30.1567 12.1145 31.4953 10.2645 31.4953 8.30599C31.4953 6.34753 30.149 4.4897 27.7103 3.06537C25.1177 1.55588 21.702 0.805011 18.294 0.805011Z" fill="#999999"/>
<path d="M17.3016 9.97029C17.6786 9.75354 17.8786 9.51357 17.8863 9.25038C17.9017 8.99493 17.7324 8.63885 17.3862 8.18987C16.6939 7.37707 16.3246 6.68813 16.2861 6.13078C16.2477 5.56569 16.6554 5.03931 17.5016 4.54389C18.2786 4.08717 19.171 3.86268 20.1711 3.87042C21.1712 3.87817 22.1482 4.10265 23.1022 4.55163L24.5869 3.69238L25.687 4.33488L24.1792 5.20961C24.8946 5.75922 25.2254 6.33205 25.1639 6.91262C25.1024 7.50093 24.6408 8.03505 23.7715 8.52273L23.7253 8.53047L21.7482 7.37707C22.2482 7.08292 22.5252 6.78876 22.5637 6.50235C22.6021 6.21593 22.4175 5.945 22.0098 5.70503C21.5713 5.44958 21.1481 5.33346 20.725 5.35669C20.3019 5.37217 19.9019 5.49602 19.5172 5.72051C19.1556 5.92952 18.9787 6.154 18.971 6.39397C18.9633 6.63394 19.1326 6.99777 19.4711 7.47771C20.1634 8.26728 20.525 8.94848 20.5481 9.52906C20.5789 10.1019 20.1634 10.636 19.3249 11.1237C18.5171 11.5881 17.6247 11.8204 16.64 11.8049C15.6553 11.7972 14.686 11.5649 13.7244 11.1082L12.3704 11.921L11.2703 11.2785L12.6396 10.4812C11.8319 9.9161 11.3934 9.32779 11.3318 8.69303C11.2703 8.06602 11.7473 7.46996 12.7473 6.90488L12.8089 6.88939L14.7783 8.03505C14.1859 8.37566 13.909 8.70852 13.9475 9.02589C13.9859 9.33553 14.2321 9.62969 14.6937 9.90062C15.1476 10.1638 15.5938 10.2954 16.0477 10.3032C16.5015 10.3032 16.917 10.1948 17.3016 9.97029Z" fill="#808080"/>
<path d="M18.8402 21.1173C18.6171 21.1173 18.4325 20.9316 18.4325 20.7071V16.1864C18.4325 15.9619 18.6171 15.7761 18.8402 15.7761C19.0633 15.7761 19.248 15.9619 19.248 16.1864V20.7071C19.248 20.9316 19.0633 21.1173 18.8402 21.1173ZM16.0169 21.009C15.7938 21.009 15.6092 20.8232 15.6092 20.5987V16.078C15.6092 15.8535 15.7938 15.6677 16.0169 15.6677C16.24 15.6677 16.4246 15.8535 16.4246 16.078V20.5987C16.4169 20.8232 16.24 21.009 16.0169 21.009ZM21.6636 20.8774C21.4405 20.8774 21.2558 20.6916 21.2558 20.4671V15.9464C21.2558 15.7219 21.4405 15.5361 21.6636 15.5361C21.8867 15.5361 22.0713 15.7219 22.0713 15.9464V20.4671C22.0713 20.6993 21.8867 20.8774 21.6636 20.8774ZM13.1935 20.5368C12.9704 20.5368 12.7858 20.351 12.7858 20.1265V15.6058C12.7858 15.3813 12.9704 15.1955 13.1935 15.1955C13.4166 15.1955 13.6013 15.3813 13.6013 15.6058V20.1265C13.5936 20.3587 13.4166 20.5368 13.1935 20.5368ZM10.3625 19.6311C10.1394 19.6311 9.95478 19.4453 9.95478 19.2208V14.7001C9.95478 14.4756 10.1394 14.2898 10.3625 14.2898C10.5856 14.2898 10.7702 14.4756 10.7702 14.7001V19.2208C10.7702 19.4453 10.5856 19.6311 10.3625 19.6311ZM7.53917 18.0364C7.31607 18.0364 7.13144 17.8507 7.13144 17.6262V13.1055C7.13144 12.881 7.31607 12.6952 7.53917 12.6952C7.76227 12.6952 7.9469 12.881 7.9469 13.1055V17.6262C7.9469 17.8507 7.76227 18.0364 7.53917 18.0364Z" fill="#999999"/>
<path d="M38.7575 69.2351C41.8885 71.0542 46.9659 71.0542 50.1047 69.2273L79.2382 52.3056C82.3769 50.4865 82.3769 47.5294 79.2459 45.7103L46.0582 26.4276L5.56206 49.9524L38.7575 69.2351Z" fill="#B3B3B3"/>
<path d="M44.4196 71C42.2963 71 40.1653 70.5278 38.5498 69.5911L5.35435 50.3007C5.23126 50.231 5.15433 50.0917 5.15433 49.9446C5.15433 49.7975 5.23126 49.6659 5.35435 49.5885L45.8505 26.0792C45.9735 26.0096 46.1274 26.0096 46.2582 26.0792L79.4536 45.3619C81.0999 46.3218 82 47.6146 82 49.0079C82 50.4013 81.0922 51.7018 79.4459 52.6617L50.3047 69.5834C48.6815 70.5278 46.5505 71 44.4196 71ZM6.36983 49.9523L38.9575 68.8867C41.9732 70.6362 46.8813 70.6362 49.9047 68.879L79.0459 51.9495C80.4306 51.1444 81.1999 50.0994 81.1999 49.0002C81.1999 47.9087 80.4383 46.8637 79.0536 46.0586L46.0582 26.8998L6.36983 49.9523Z" fill="#B3B3B3"/>
<path d="M43.6425 18.2686L3.14645 41.7934C2.53101 42.1494 2.14635 42.9235 2.14635 44.015C2.14635 46.198 3.66957 48.8609 5.55436 49.9523L46.0504 26.4276V18.5163C45.1119 17.9667 44.258 17.9125 43.6425 18.2686Z" fill="#808080"/>
<path d="M5.56206 50.3549C5.49282 50.3549 5.42359 50.3394 5.36204 50.3007C3.36955 49.1473 1.74632 46.3218 1.74632 44.0073C1.74632 42.7997 2.17713 41.8863 2.94643 41.4373L43.4348 17.9125C44.2118 17.4636 45.2119 17.5487 46.2505 18.1602C46.3736 18.2299 46.4505 18.3692 46.4505 18.5086V26.4276C46.4505 26.5747 46.3736 26.7063 46.2505 26.7837L5.76208 50.3007C5.70054 50.3394 5.6313 50.3549 5.56206 50.3549ZM43.8426 18.6247L3.35416 42.1494C2.83873 42.4436 2.55409 43.1093 2.55409 44.015C2.55409 45.989 3.88498 48.3887 5.56975 49.4801L45.6504 26.1953V18.7563C44.9504 18.4002 44.3118 18.3538 43.8426 18.6247Z" fill="#808080"/>
<path d="M79.169 48.9305L43.1194 27.9835L8.4931 48.1023L44.5426 69.0415L79.169 48.9305Z" fill="#F2F2F2"/>
<path d="M44.5426 69.4519C44.4734 69.4519 44.4042 69.4364 44.3426 69.3977L8.29308 48.4507C8.16999 48.381 8.09306 48.2416 8.09306 48.0946C8.09306 47.9475 8.16999 47.8159 8.29308 47.7385L42.9194 27.6198C43.0425 27.5501 43.1964 27.5501 43.3271 27.6198L79.3767 48.5668C79.4998 48.6364 79.5767 48.7758 79.5767 48.9229C79.5767 49.0699 79.4998 49.2015 79.3767 49.2789L44.7426 69.3977C44.6811 69.4364 44.6119 69.4519 44.5426 69.4519ZM9.30087 48.1023L44.5426 68.5771L78.3612 48.9306L43.1194 28.4558L9.30087 48.1023Z" fill="#B3B3B3"/>
<path d="M79.169 46.2909L43.1194 25.3439L8.4931 45.4626L44.5426 66.4096L79.169 46.2909Z" fill="#F2F2F2"/>
<path d="M44.5426 66.8122C44.4734 66.8122 44.4042 66.7967 44.3426 66.758L8.29308 45.8187C8.16999 45.749 8.09306 45.6097 8.09306 45.4626C8.09306 45.3155 8.16999 45.1839 8.29308 45.1065L42.9194 24.9878C43.0425 24.9181 43.1964 24.9181 43.3271 24.9878L79.3767 45.9348C79.4998 46.0045 79.5767 46.1438 79.5767 46.2909C79.5767 46.438 79.4998 46.5696 79.3767 46.647L44.7426 66.758C44.6811 66.7967 44.6119 66.8122 44.5426 66.8122ZM9.30087 45.4626L44.5426 65.9374L78.3612 46.2909L43.1194 25.8161L9.30087 45.4626Z" fill="#CCCCCC"/>
<path d="M78.0304 42.9933L43.1194 22.7042L8.4931 42.823L43.4118 63.1042L78.0304 42.9933Z" fill="#F2F2F2"/>
<path d="M43.4118 63.5145C43.3425 63.5145 43.2733 63.499 43.2118 63.4603L8.30078 43.179C8.17769 43.1094 8.10076 42.97 8.10076 42.823C8.10076 42.6759 8.17769 42.5443 8.30078 42.4669L42.9271 22.3481C43.0502 22.2785 43.2041 22.2785 43.3348 22.3481L78.2458 42.6294C78.3689 42.6991 78.4458 42.8384 78.4458 42.9855C78.4458 43.1326 78.3689 43.2642 78.2458 43.3416L43.6118 63.4603C43.5503 63.499 43.481 63.5145 43.4118 63.5145ZM9.30087 42.823L43.4041 62.6398L77.2226 42.9933L43.1194 23.1764L9.30087 42.823Z" fill="#CCCCCC"/>
<path d="M74.707 35.1594L46.0582 18.5164C45.1119 17.9668 44.2657 17.9126 43.6425 18.2764L3.14645 41.7934C3.04644 41.8553 2.96182 41.9327 2.87719 42.0101C3.50033 41.445 4.46196 41.3986 5.55437 42.0334L34.2032 58.6841C37.3343 60.5032 42.4194 60.4955 45.5504 58.6764L74.6993 41.7469C77.8304 39.9278 77.8381 36.9785 74.707 35.1594Z" fill="#B3B3B3"/>
<path d="M39.8807 60.4414C37.7574 60.4414 35.6264 59.9692 34.0109 59.0325L5.35435 42.3895C4.46965 41.8709 3.66188 41.8476 3.14645 42.3198C2.9772 42.4669 2.72333 42.4592 2.57717 42.2889C2.431 42.1263 2.43869 41.8631 2.60794 41.716C2.73103 41.5999 2.82334 41.5148 2.94643 41.4451L43.4425 17.9203C44.2195 17.4714 45.2196 17.5565 46.2582 18.1681L74.907 34.8111C76.5533 35.7632 77.4534 37.056 77.4534 38.4571C77.4534 39.8582 76.5456 41.1509 74.8993 42.1108L45.7658 59.0325C44.1426 59.9769 42.0116 60.4414 39.8807 60.4414ZM4.83892 41.2825C5.13894 41.3677 5.44666 41.4993 5.76208 41.6851L34.4109 58.3281C37.4266 60.0776 42.3347 60.0776 45.3581 58.3204L74.4993 41.3909C75.884 40.5859 76.6456 39.5408 76.6456 38.4416C76.6456 37.3501 75.884 36.3051 74.4993 35.5L45.8504 18.8647C45.0658 18.408 44.3503 18.3229 43.8426 18.6248L4.83892 41.2825Z" fill="#B3B3B3"/>
<path d="M59.6364 63.6924C60.5826 64.2498 61.4442 64.2962 62.0597 63.9247V63.9324L72.1145 58.088C72.7299 57.7319 73.1146 56.9655 73.1146 55.8741C73.1146 55.8663 73.1146 55.8663 73.1146 55.8663L59.6364 63.6924Z" fill="#B3B3B3"/>
<path d="M61.1596 64.5672C60.6211 64.5672 60.0364 64.3892 59.4363 64.0408C59.3133 63.9712 59.2363 63.8318 59.2363 63.6848C59.2363 63.5377 59.3133 63.4061 59.4363 63.3364L72.9145 55.5026C73.0376 55.4329 73.1915 55.4329 73.3223 55.5026C73.4453 55.5722 73.5223 55.7116 73.5223 55.8587C73.5223 57.074 73.0992 57.9874 72.3222 58.4364L62.2674 64.2808C62.252 64.2886 62.2289 64.2963 62.2135 64.304C61.8904 64.4821 61.5365 64.5672 61.1596 64.5672ZM60.5211 63.6461C61.0365 63.8086 61.4981 63.7854 61.8596 63.5686C61.875 63.5532 61.8981 63.5454 61.9212 63.5377L71.9221 57.7242C72.2837 57.5152 72.5299 57.1282 72.6453 56.594L60.5211 63.6461Z" fill="#B3B3B3"/>
<path d="M69.7066 49.9292L59.0286 43.7209C56.2514 42.1108 51.7433 42.1108 48.9584 43.7286C46.1736 45.3465 46.1736 47.9629 48.9507 49.5808L59.6287 55.7813C61.5135 56.8805 63.0367 59.5357 63.0367 61.7264C63.0367 62.8101 62.6597 63.5687 62.052 63.9325V63.9403L72.1068 58.0959C72.7222 57.7398 73.1069 56.9734 73.1069 55.882C73.1223 53.6758 71.5913 51.0206 69.7066 49.9292Z" fill="#999999"/>
<path d="M62.0674 64.335C62.0289 64.335 61.9904 64.3272 61.952 64.3195C61.8443 64.2885 61.7596 64.2111 61.7058 64.1105C61.6135 63.917 61.675 63.6847 61.8596 63.5764C62.3674 63.2745 62.6443 62.6165 62.6443 61.7263C62.6443 59.6749 61.2057 57.1669 59.4363 56.1373L48.7507 49.9291C47.2737 49.0698 46.4659 47.9087 46.4659 46.6547C46.4659 45.4006 47.2814 44.2317 48.7584 43.3725C51.6433 41.6927 56.3437 41.6927 59.2286 43.3648L69.9066 49.573C71.9298 50.7496 73.5223 53.5131 73.5223 55.8664C73.5223 57.074 73.0992 57.9874 72.3222 58.4364L62.2674 64.2808C62.2058 64.3118 62.1366 64.335 62.0674 64.335ZM53.9974 42.9158C52.2434 42.9158 50.497 43.3028 49.1585 44.0769C47.943 44.7814 47.2737 45.6948 47.2737 46.6547C47.2737 47.6068 47.943 48.5202 49.1508 49.2247L59.8364 55.4252C61.8289 56.5863 63.4521 59.4117 63.4521 61.7185C63.4521 62.0824 63.4136 62.4152 63.3367 62.7171L71.9221 57.732C72.4376 57.4378 72.7145 56.7721 72.7145 55.8664C72.7145 53.815 71.2759 51.307 69.5065 50.2774L58.8286 44.0692C57.4977 43.3028 55.7514 42.9158 53.9974 42.9158Z" fill="#999999"/>
<path d="M56.6899 45.1685C55.2436 44.3247 52.8896 44.3247 51.4433 45.1685C49.9893 46.0122 49.9893 47.3746 51.4433 48.2184C52.8896 49.0622 55.236 49.0622 56.6899 48.2184C58.1362 47.3746 58.1362 46.0045 56.6899 45.1685Z" fill="#B3B3B3"/>
<path d="M54.0589 49.2556C53.0434 49.2556 52.0279 49.0234 51.2355 48.5667C50.4047 48.0868 49.9431 47.421 49.9431 46.6934C49.9431 45.9657 50.4047 45.3 51.2355 44.8123C52.8203 43.8912 55.3052 43.8912 56.8899 44.8123C57.7208 45.2923 58.1747 45.958 58.1747 46.6856C58.1747 47.4133 57.7131 48.079 56.8823 48.559C56.0899 49.0234 55.0744 49.2556 54.0589 49.2556ZM54.0666 44.9362C53.1896 44.9362 52.3126 45.1297 51.6433 45.5168C51.074 45.8496 50.7586 46.2676 50.7586 46.6934C50.7586 47.1191 51.074 47.5294 51.6433 47.8623C52.9742 48.6364 55.1513 48.6364 56.4822 47.8623C57.0515 47.5294 57.3669 47.1114 57.3669 46.6934C57.3669 46.2676 57.0515 45.8574 56.4822 45.5245C55.8206 45.1297 54.9436 44.9362 54.0666 44.9362Z" fill="#B3B3B3"/>
<path d="M62.3058 58.8622C62.7597 59.7988 63.0444 60.8051 63.0444 61.7186C63.0444 62.8023 62.6674 63.5609 62.0597 63.9247V63.9325L72.1145 58.0881C72.7299 57.732 73.1146 56.9656 73.1146 55.8742C73.1146 54.953 72.8376 53.9544 72.376 53.01L62.3058 58.8622Z" fill="#808080"/>
<path d="M62.0674 64.335C62.0289 64.335 61.9904 64.3273 61.952 64.3196C61.8443 64.2886 61.7596 64.2112 61.7058 64.1105C61.6135 63.917 61.675 63.6848 61.8596 63.5764C62.3674 63.2745 62.6443 62.6165 62.6443 61.7263C62.6443 60.9135 62.4059 59.9846 61.952 59.048C61.8597 58.8544 61.9289 58.6222 62.1135 58.5138L72.1914 52.6617C72.2837 52.6075 72.3991 52.592 72.5145 52.623C72.6222 52.6539 72.7068 52.7313 72.7607 52.832C73.2684 53.877 73.5377 54.9298 73.5377 55.8742C73.5377 57.0818 73.1145 57.9952 72.3375 58.4442L62.2828 64.2886C62.2058 64.3118 62.1366 64.335 62.0674 64.335ZM62.829 59.0247C63.2367 59.9536 63.4444 60.8826 63.4444 61.7186C63.4444 62.0824 63.4059 62.4153 63.329 62.7172L71.9144 57.732C72.4299 57.4378 72.7068 56.7721 72.7068 55.8664C72.7068 55.162 72.5299 54.3802 72.1914 53.5828L62.829 59.0247Z" fill="#808080"/>
</svg>
