<svg width="68" height="71" viewBox="0 0 68 71" fill="none" xmlns="http://www.w3.org/2000/svg">
<path d="M65.7915 2.80762L67.8293 8.32445C69.2824 12.2547 61.2833 18.8498 49.9643 23.0536C40.697 26.4953 32.0781 27.2684 28.4581 25.2784C27.6586 24.8368 27.1026 24.2617 26.8392 23.5487L24.8022 18.0334L32.3451 15.2313C32.9069 14.8205 33.5033 14.4105 34.1327 14.0048C36.0435 12.7725 38.2558 11.5718 40.6918 10.4693C41.699 10.0115 42.7442 9.57217 43.8232 9.15406C44.1137 9.0411 44.4093 8.9296 44.7049 8.81957C48.1576 7.53737 51.5201 6.62487 54.5694 6.0894C55.0747 6.00064 55.5713 5.92142 56.0591 5.85394C56.8125 5.74684 57.5445 5.66616 58.248 5.61041L65.7915 2.80762Z" fill="#E59D29"/>
<path d="M65.792 2.80789C67.2437 6.73884 59.2461 13.3332 47.9263 17.537C45.2959 18.5141 42.7161 19.277 40.2889 19.8212C32.2752 21.622 25.917 21.0513 24.8028 18.0336C23.3497 14.1034 31.3487 7.50831 42.6677 3.30449C45.3818 2.29663 48.0408 1.51762 50.5326 0.969683C58.4399 -0.768033 64.6888 -0.179014 65.792 2.80789Z" fill="#F4B545"/>
<path d="M56.0599 5.85443C55.7848 5.54415 55.3718 5.33216 54.8195 5.217C54.4865 5.14804 54.1014 5.11283 53.6656 5.1143C52.1803 5.11797 50.4851 5.4752 48.5787 6.18231C46.6957 6.88209 45.338 7.61562 44.5091 8.38215C44.2516 8.62054 44.0227 8.87874 43.8232 9.15455C43.3838 9.76631 43.0882 10.4712 42.9401 11.2686C42.8242 11.8884 42.6261 12.352 42.3459 12.6586C42.0664 12.9645 41.6131 13.2337 40.9852 13.4669C40.3676 13.698 39.8013 13.7963 39.2835 13.7662C38.7656 13.7361 38.434 13.5205 38.2866 13.1214C37.9807 12.2948 38.7942 11.4189 40.7263 10.494L40.6926 10.4698L39.0773 9.27118C37.1731 10.1727 35.819 11.0771 35.0187 11.9845C34.3813 12.7033 34.0857 13.3782 34.1334 14.0053C34.1437 14.1696 34.1781 14.331 34.2375 14.4887C34.6131 15.5061 35.6034 16.0101 37.2076 16.0027C38.8118 15.9954 40.5818 15.633 42.5183 14.9134C43.7535 14.455 44.826 13.9195 45.7355 13.3078C46.6458 12.6938 47.2612 12.1283 47.5811 11.6082C47.9016 11.0896 48.1415 10.3693 48.3021 9.44576C48.3975 8.89488 48.5985 8.48851 48.9073 8.22811C49.2154 7.96624 49.6254 7.74105 50.1381 7.55033C51.4262 7.07281 52.1971 7.1777 52.4524 7.86575C52.6908 8.51198 51.9983 9.24917 50.3765 10.0781L51.6426 10.6876L52.3548 11.0309C55.5596 9.36507 56.8939 7.8034 56.3547 6.34295C56.2851 6.15884 56.1875 5.996 56.0599 5.85443Z" fill="white"/>
<path d="M63.8693 44.7539L66.3471 50.0874C68.1135 53.887 60.6748 61.1078 49.7336 66.2146C40.7758 70.3957 32.2471 71.8642 28.4783 70.1734C27.6457 69.7979 27.045 69.2697 26.7252 68.5802L24.248 63.2482L31.5393 59.8447C32.0659 59.3892 32.6271 58.9329 33.222 58.4774C35.0272 57.094 37.1346 55.7186 39.4731 54.4225C40.4398 53.8848 41.4462 53.3625 42.4878 52.8579C42.7688 52.7222 43.0534 52.5865 43.3395 52.453C46.677 50.8957 49.9551 49.714 52.9508 48.9328C53.4474 48.8037 53.9359 48.6841 54.4171 48.5778C55.1595 48.4098 55.8827 48.2704 56.5788 48.1575L63.8693 44.7539Z" fill="#E59D29"/>
<path d="M63.8693 44.7547C65.6348 48.555 58.1969 55.7751 47.255 60.8819C44.7126 62.0687 42.2032 63.0385 39.8273 63.7771C31.9859 66.2205 25.6021 66.1669 24.2473 63.249C22.4809 59.4493 29.9196 52.2285 40.8608 47.1217C43.4846 45.8975 46.0718 44.9058 48.5108 44.1576C56.2516 41.7853 62.5276 41.866 63.8693 44.7547Z" fill="#F4B545"/>
<path d="M54.4155 48.578C54.1162 48.2912 53.6879 48.113 53.1282 48.0433C52.7908 48.0015 52.4042 47.9978 51.97 48.0345C50.4897 48.1585 48.829 48.6514 46.9864 49.5103C45.1658 50.3605 43.8726 51.2011 43.1083 52.0322C42.8713 52.2904 42.6637 52.5669 42.4877 52.8574C42.0989 53.5029 41.8613 54.2291 41.7784 55.036C41.7124 55.6631 41.5532 56.1414 41.2987 56.47C41.0449 56.7979 40.615 57.103 40.0077 57.3862C39.4106 57.6664 38.8546 57.8109 38.336 57.8219C37.8174 57.8336 37.4697 57.6459 37.2907 57.26C36.9188 56.4605 37.6582 55.5223 39.5096 54.4433L39.4744 54.422L37.7675 53.3584C35.9425 54.4117 34.6661 55.4225 33.9422 56.3915C33.3656 57.1595 33.1257 57.8564 33.2233 58.4777C33.2468 58.6405 33.2945 58.7989 33.3663 58.9508C33.8233 59.9344 34.851 60.357 36.4493 60.2191C38.0477 60.0819 39.7825 59.578 41.6544 58.7036C42.8486 58.1468 43.8741 57.5256 44.7308 56.8426C45.5883 56.1568 46.1561 55.5436 46.4326 54.9993C46.7099 54.4565 46.891 53.7186 46.9761 52.7855C47.026 52.2288 47.194 51.8077 47.4808 51.5231C47.7669 51.2371 48.1571 50.9796 48.6522 50.7478C49.897 50.1676 50.6746 50.2101 50.9841 50.8747C51.2738 51.4997 50.6437 52.2904 49.0938 53.2476L50.4046 53.753L51.1418 54.0377C54.2013 52.118 55.4043 50.4529 54.7493 49.0416C54.6649 48.8634 54.5542 48.7086 54.4155 48.578Z" fill="white"/>
<path d="M41.7601 36.3917L39.0094 41.5894C37.0502 45.2937 26.8014 43.7328 16.1191 38.103C7.3733 33.4943 1.04887 27.5879 0.117292 23.5638C-0.0866274 22.6733 -0.0294126 21.876 0.326346 21.2041L3.07632 16.0078L10.1959 19.7583C10.8773 19.9028 11.5801 20.0737 12.3018 20.2725C14.4943 20.874 16.8644 21.722 19.3107 22.801C20.3237 23.2462 21.3477 23.7318 22.379 24.2563C22.657 24.3979 22.9372 24.5431 23.2159 24.6898C26.4735 26.407 29.3966 28.3039 31.8297 30.2184C32.2331 30.5352 32.6226 30.8529 32.9989 31.1712C33.5814 31.6612 34.13 32.1527 34.6406 32.6397L41.7601 36.3917Z" fill="#E59D29"/>
<path d="M41.7605 36.3913C39.7998 40.0948 29.5525 38.5346 18.8702 32.9048C16.3872 31.5969 14.0986 30.1834 12.0741 28.7377C5.38726 23.9676 1.57148 18.8498 3.0774 16.0066C5.03591 12.3023 15.2854 13.8633 25.967 19.4931C28.5285 20.8435 30.8823 22.3047 32.9523 23.7952C39.521 28.5279 43.2503 33.5767 41.7605 36.3913Z" fill="#F4B545"/>
<path d="M32.9994 31.1713C33.0471 30.7598 32.9298 30.3109 32.6473 29.8224C32.4764 29.5283 32.2461 29.218 31.9542 28.8945C30.961 27.7905 29.5636 26.7651 27.7657 25.8166C25.9877 24.8807 24.5368 24.3584 23.4123 24.252C23.0631 24.219 22.7176 24.2212 22.3795 24.2564C21.6306 24.3371 20.908 24.5865 20.2156 25.0083C19.6765 25.3347 19.1997 25.4968 18.7838 25.4924C18.3693 25.4887 17.8661 25.3303 17.2734 25.0178C16.6895 24.7119 16.2384 24.3554 15.9157 23.9498C15.5929 23.5434 15.532 23.1532 15.7316 22.7776C16.1438 21.9979 17.338 22.0199 19.3163 22.8422L19.3119 22.8011L19.127 20.7986C17.1854 19.9814 15.6083 19.5758 14.3988 19.5846C13.4386 19.589 12.7381 19.8193 12.3023 20.2727C12.1864 20.39 12.0896 20.5235 12.0119 20.6724C11.5043 21.6304 11.7896 22.705 12.865 23.8955C13.9403 25.0853 15.3912 26.1628 17.2184 27.126C18.3833 27.7407 19.4982 28.1822 20.5611 28.4514C21.6254 28.7199 22.4572 28.8013 23.058 28.6928C23.658 28.5857 24.3549 28.2835 25.15 27.7876C25.6239 27.4913 26.061 27.3702 26.4608 27.4267C26.8613 27.4817 27.3029 27.6365 27.7863 27.891C29.001 28.5321 29.4374 29.1769 29.0949 29.8261C28.7721 30.4342 27.7613 30.4107 26.0618 29.7549L26.452 31.1046L26.6713 31.8638C30.0499 33.1401 32.1038 33.0924 32.8322 31.7171C32.9224 31.5425 32.9789 31.3613 32.9994 31.1713Z" fill="white"/>
</svg>
