<svg width="94" height="94" viewBox="0 0 94 94" fill="none" xmlns="http://www.w3.org/2000/svg">
<path d="M94 0H0V94H94V0Z" fill="#F9BE00"/>
<path d="M33.5747 42.1671C35.0152 41.8624 35.7427 39.5339 35.1997 36.966C34.6567 34.3982 33.0487 32.5635 31.6083 32.8681C30.1678 33.1727 29.4402 35.5013 29.9832 38.0691C30.5262 40.637 32.1342 42.4717 33.5747 42.1671Z" fill="#111820"/>
<path d="M71.7511 38.6679C73.2197 38.5643 74.2606 36.3581 74.0761 33.7402C73.8915 31.1222 72.5513 29.0839 71.0827 29.1874C69.6141 29.2909 68.5732 31.4972 68.7578 34.1151C68.9423 36.7331 70.2825 38.7714 71.7511 38.6679Z" fill="#111820"/>
<path d="M50.8759 70.0001C37.6339 70.0001 32.5407 62.9178 32.3144 62.5909C31.7485 61.8282 31.9748 60.8475 32.7671 60.3028C33.5594 59.758 34.578 59.9759 35.1439 60.7386C35.3702 61.0655 40.5765 68.0389 55.0636 66.4045C55.9691 66.2955 56.8745 66.9493 56.9877 67.8209C57.1009 68.6926 56.4218 69.5643 55.5163 69.6732C53.8186 69.8912 52.2341 70.0001 50.8759 70.0001Z" fill="#111820"/>
</svg>
