<svg width="92" height="87" viewBox="0 0 92 87" fill="none" xmlns="http://www.w3.org/2000/svg">
<path d="M73.1314 69.0746C75.5003 74.0557 75.1109 78.7447 71.2006 82.7523C68.0205 86.0136 64.0291 86.8897 59.6646 85.5431C56.0626 84.4397 52.1037 81 51.7629 74.7858C48.0311 74.6884 44.2831 74.5911 40.4864 74.4937C40.3729 78.5663 38.7666 81.9086 35.3269 84.2126C32.7471 85.9325 29.8914 86.5166 26.8573 85.9C20.4322 84.6182 16.2136 78.0957 18.1444 71.4272C17.1385 71.1027 16.1163 70.8106 15.1103 70.4537C11.3948 69.1557 7.87392 67.5331 4.98585 64.7749C2.22758 62.1626 0.734862 58.9501 0.637511 55.1209C0.588836 53.2713 1.70838 52.1193 3.55804 51.9408C4.79115 51.8272 6.05671 51.6974 7.2087 51.2918C9.59379 50.4481 10.7782 48.4686 11.4921 46.1809C12.1411 44.0716 12.3358 41.8812 12.1736 39.6908C11.8329 35.31 12.4981 31.059 13.8772 26.9216C16.2786 19.7015 20.6107 13.8117 26.6302 9.22001C32.601 4.64452 39.3669 1.93493 46.8467 1.075C55.1053 0.117714 63.0394 1.35082 70.4705 5.09882C79.6539 9.72299 86.4036 16.6836 89.7784 26.5322C93.2668 36.7541 92.0662 46.5865 86.5821 55.8673C83.4019 61.2378 79.0211 65.4401 73.6993 68.6851C73.5533 68.7825 73.4072 68.8636 73.2612 68.961C73.1801 68.9772 73.1639 69.0421 73.1314 69.0746ZM6.80307 57.3924C6.86797 57.5871 6.90042 57.7494 6.98155 57.9117C7.74413 59.5991 8.99345 60.8646 10.4699 61.903C13.5203 64.061 17.0087 65.213 20.5782 66.154C21.1299 66.3 21.5193 66.2351 21.9898 65.862C26.7438 62.1626 33.3961 62.5683 37.2901 66.9977C38.4096 68.2633 39.4805 68.7987 41.0868 68.7987C44.9646 68.7987 48.8424 68.9285 52.7202 69.0259C53.1907 69.0421 53.4666 68.8474 53.7424 68.458C56.955 63.6716 63.0069 62.0491 68.2152 64.5964C68.702 64.8398 69.0914 64.8236 69.5294 64.5315C71.1195 63.4444 72.8394 62.4871 74.3159 61.2378C83.5155 53.5146 87.6043 43.7795 85.2678 31.8216C83.7589 24.0985 79.4268 18.0303 73.1314 13.3737C68.4099 9.86902 63.1043 7.77597 57.2957 6.89982C51.7954 6.07233 46.3924 6.47797 41.0706 8.08426C36.0245 9.60942 31.5139 12.1243 27.6361 15.7101C23.158 19.8475 20.0266 24.861 18.5663 30.8319C17.9011 33.5415 17.5279 36.2835 17.8037 39.1067C18.0958 42.2057 17.7713 45.2723 16.7977 48.2415C15.4997 52.2004 13.0984 55.1858 9.12326 56.711C8.37691 56.9706 7.5981 57.1491 6.80307 57.3924ZM29.1613 69.0746C26.0623 69.0097 23.4338 71.5408 23.3852 74.6884C23.3365 77.755 25.8514 80.351 28.9666 80.4321C32.0169 80.5295 34.6941 77.9335 34.759 74.802C34.8077 71.7517 32.2765 69.1395 29.1613 69.0746ZM63.2828 69.0746C60.1838 69.0097 57.5553 71.5732 57.5066 74.7047C57.4579 77.755 60.0215 80.3672 63.1205 80.4321C66.1871 80.5133 68.848 77.9172 68.8804 74.7858C68.9129 71.703 66.3818 69.1232 63.2828 69.0746Z" fill="#111820"/>
<path d="M51.8116 57.7008C43.6504 57.6521 36.6736 52.1031 34.8564 44.169C34.4994 42.6114 35.3269 41.1674 36.8196 40.7293C38.3123 40.2912 39.805 41.0538 40.2918 42.6114C40.8434 44.3799 41.46 46.0836 42.6606 47.5438C45.1593 50.6104 48.4043 52.0869 52.3308 51.9246C56.2898 51.7624 59.4537 49.9938 61.6116 46.6677C62.3904 45.467 62.8123 44.0068 63.3315 42.6601C63.7858 41.4756 64.5808 40.7455 65.8464 40.6319C67.7447 40.4535 69.2212 42.1733 68.848 44.0717C67.4526 51.0485 61.1897 56.7435 54.0669 57.5061C53.2881 57.5872 52.5417 57.6359 51.8116 57.7008Z" fill="#111820"/>
<path d="M60.4432 29.2256C60.4432 27.6356 61.6926 26.3862 63.2826 26.3862C64.8727 26.3862 66.1383 27.6356 66.1383 29.2094C66.1545 30.767 64.8565 32.065 63.3151 32.065C61.7737 32.065 60.4595 30.7508 60.4432 29.2256Z" fill="#111820"/>
<path d="M40.5839 26.3863C42.1577 26.4187 43.4233 27.7167 43.3908 29.2581C43.3584 30.8157 42.0441 32.0975 40.4865 32.0651C38.9451 32.0326 37.6633 30.7022 37.6958 29.1608C37.7282 27.5707 38.9776 26.37 40.5839 26.3863Z" fill="#111820"/>
</svg>
